<svg xmlns="http://www.w3.org/2000/svg" xmlns:xlink="http://www.w3.org/1999/xlink" width="357.098" height="215.738" viewBox="0 0 357.098 215.738">
  <defs>
    <clipPath id="clip-path">
      <rect id="Rectángulo_339505" data-name="Rectángulo 339505" width="292" height="215.738" fill="none"/>
    </clipPath>
    <clipPath id="clip-path-2">
      <rect id="Rectángulo_339506" data-name="Rectángulo 339506" width="91.098" height="118.396" fill="none"/>
    </clipPath>
    <clipPath id="clip-path-3">
      <path id="Trazado_646447" data-name="Trazado 646447" d="M48.955,26.248c-1.088.563-.926,2.827-.863,3.794a37.034,37.034,0,0,1,.09,5.34,50.435,50.435,0,0,1-1.314,8.258,19.008,19.008,0,0,0-.828,3.7,6.186,6.186,0,0,1-.224,2.591c-1.131,3.078-2.52,6.083-3.8,9.1,4.148,5.575,6.719,7.556,6.719,7.556,2.8,1.811,9.315,2.9,14.208,5.723,2.3-4.223,2.427-7.376,2.053-9.546-.416-2.4-1.6-4.519-1.37-8.3a7.435,7.435,0,0,1,.812-3.506c.794-1.284,2.3-2.337,3.164-3.647a16.9,16.9,0,0,0,2.889-8.877c.135-5.12-2.532-9.347-5.476-13.5-.089-.125-.185-.246-.282-.364a6.4,6.4,0,0,0-5.1-2.391c-3.674,0-7.713,2.529-10.679,4.062" transform="translate(-42.018 -22.186)" fill="none"/>
    </clipPath>
    <linearGradient id="linear-gradient" x1="-0.933" y1="2.42" x2="-0.905" y2="2.42" gradientUnits="objectBoundingBox">
      <stop offset="0" stop-color="#ffcf4d"/>
      <stop offset="1" stop-color="#f4b042"/>
    </linearGradient>
    <clipPath id="clip-path-5">
      <path id="Trazado_646456" data-name="Trazado 646456" d="M56.99,24.612l-.087,0c-4.072.268-4.4,5.875-5.934,8.6-1.007,1.794-6.074,8.927-6.074,8.927s4.667,10.984,6.335,8.1c.643-1.116,7.262-8.281,7.831-8.94,2.414-2.8,4.769-8.228,4.352-12.122-.328-3.055-2.727-4.574-5.931-4.574-.162,0-.325,0-.491.011" transform="translate(-44.895 -24.601)" fill="none"/>
    </clipPath>
    <linearGradient id="linear-gradient-2" x1="-3.398" y1="2.921" x2="-3.322" y2="2.921" gradientUnits="objectBoundingBox">
      <stop offset="0" stop-color="#ffcb3d"/>
      <stop offset="1" stop-color="#f4a72c"/>
    </linearGradient>
  </defs>
  <g id="Grupo_930556" data-name="Grupo 930556" transform="translate(-203 -2192.558)">
    <g id="Grupo_928492" data-name="Grupo 928492" transform="translate(203 2192.558)">
      <rect id="Rectángulo_339504" data-name="Rectángulo 339504" width="2.806" height="27.324" transform="translate(188.883 0.779)" fill="#939598"/>
      <path id="Trazado_646237" data-name="Trazado 646237" d="M47.728,0V10.338L25.312,6.387Z" transform="translate(144.659 0.001)" fill="#f42a39"/>
      <g id="Grupo_928491" data-name="Grupo 928491" transform="translate(0 0)">
        <g id="Grupo_928490" data-name="Grupo 928490" clip-path="url(#clip-path)">
          <path id="Trazado_646238" data-name="Trazado 646238" d="M26.309,199.527q-9.876-13.17-20.287-26.112,4.522-8.9,9.26-17.757Q28.612,135.966,43.271,116.7q6.871,3.306,13.64,6.722,14.227-23.288,30.043-46.1,8.937,4.481,17.7,9.13Q121.115,60.1,139.47,34.36q5.23-7.32,10.606-14.581c.323.433.645.87.968,1.3q2.633,2.426,5.242,4.868c.335.311.665.622,1,.933q3.288,3.093,6.533,6.206.939-2.881,1.889-5.765.649-1.972,1.3-3.947,2.969-8.937,6.033-17.855,5.283,8.3,10.39,16.651c.228.374.46.748.689,1.122q6.033,9.894,11.806,19.858,22.35,38.554,40.85,78.013,2.686,5.785,5.289,11.582,3.07,18.9,5.687,37.8a788.624,788.624,0,0,0-95.207,28.977Z" transform="translate(20.546 16.208)" fill="#36566b"/>
          <path id="Trazado_646239" data-name="Trazado 646239" d="M0,136.365q14.185-27.208,30.614-53.916,2.627,5.024,5.218,10.055,8.867,12.007,17.308,24.187Q72.42,100.062,93.2,84.35q6.316,8.813,12.385,17.717,10.726-13.979,22.176-27.686l.024-.028q8.855,15.272,17.115,30.712,10.956-22.656,23.07-45.014,14.463,22.58,27.422,45.6,4.646-39.327,9.709-78.611,22.963,27.615,43.089,56.285,4.481-12.674,9.138-25.305,1.505-4.1,3.03-8.19Q278.281,92.821,292,136.365Z" transform="translate(0 79.37)" fill="#36566b"/>
          <path id="Trazado_646240" data-name="Trazado 646240" d="M0,136.365Q.195,98.213.224,60.053q14.463,22.58,27.422,45.6,4.646-39.327,9.709-78.611Q60.319,54.653,80.441,83.323q4.486-12.674,9.142-25.305,1.505-4.1,3.026-8.19,17.928,42.993,31.645,86.537Z" transform="translate(167.745 79.37)" fill="#304b61"/>
          <path id="Trazado_646241" data-name="Trazado 646241" d="M158.369,126.881l-.012.012c-.512.889-16.7,32.294-29.8,62H30.6q14.174-27.2,30.6-53.9,2.633,5.006,5.218,10.031,13.329-19.693,27.989-38.961,6.871,3.312,13.64,6.726,14.227-23.288,30.039-46.1,8.943,4.481,17.706,9.13Q172.249,49.467,190.6,23.725q5.23-7.32,10.606-14.581c.323.437.645.87.968,1.307q-4,9.38-7.859,18.792Q174.467,77.7,158.369,126.881" transform="translate(-30.588 26.843)" fill="#466a87"/>
          <path id="Trazado_646242" data-name="Trazado 646242" d="M87.528,41.026q-8.955,2.963-17.8,6.112-12.267,21.2-23.243,42.719,19.3-24.894,41.043-48.831" transform="translate(21.532 120.432)" fill="#36566b"/>
          <path id="Trazado_646243" data-name="Trazado 646243" d="M80.539,43.69Q71.832,50.662,63.4,57.81,61.338,66.37,59.4,74.945,69.546,59.19,80.539,43.69" transform="translate(-22.298 128.252)" fill="#36566b"/>
          <path id="Trazado_646244" data-name="Trazado 646244" d="M32.319,32.83Q19.952,41.277,8.041,50.052q6.175,8.093,12.109,16.273Q26.083,49.542,32.319,32.83" transform="translate(228.036 96.373)" fill="#36566b"/>
          <path id="Trazado_646245" data-name="Trazado 646245" d="M43.718,27.038Q32.29,56.713,22.081,86.644q5.537,8.081,10.858,16.23,5.136-37.946,10.779-75.836" transform="translate(161.383 79.37)" fill="#466a87"/>
          <path id="Trazado_646246" data-name="Trazado 646246" d="M83.389,35.427Q60.768,56.956,40.316,79.571q-4.4.531-8.8,1.11Q56.1,57.3,83.389,35.427" transform="translate(84.58 103.996)" fill="#466a87"/>
          <path id="Trazado_646247" data-name="Trazado 646247" d="M25.007,26.5q4.008,3.282,7.969,6.592.939-2.881,1.889-5.762.649-1.978,1.3-3.951Q39.137,14.439,42.2,5.521q-6.033,7.172-11.9,14.408c-.039.047-.075.094-.114.138Q27.8,23.006,25.44,25.95c-.142.181-.287.366-.433.547" transform="translate(151.389 16.208)" fill="#466a87"/>
          <path id="Trazado_646248" data-name="Trazado 646248" d="M72.895,34.789q-5.956-5.065-12.046-10.051Q51.9,40.724,43.595,56.875q6.942-6.93,14.093-13.75,2.527,1.2,5.045,2.408.384-4.575.775-9.154,4.687-.821,9.386-1.59" transform="translate(47.539 72.619)" fill="#cfd8dc"/>
          <path id="Trazado_646249" data-name="Trazado 646249" d="M83.472,42.591q-4.864-3.867-9.807-7.674-9.351,13.589-18.1,27.371,6.865-7.007,13.959-13.9,2.066,2.09,4.12,4.2,4.852-5.024,9.823-9.992" transform="translate(-10.166 102.499)" fill="#cfd8dc"/>
          <path id="Trazado_646250" data-name="Trazado 646250" d="M34.318,80.753q4.87-17.414,10.146-34.77-.266,17.385-.535,34.77Z" transform="translate(112.479 134.983)" fill="#466a87"/>
          <path id="Trazado_646251" data-name="Trazado 646251" d="M23.6,100.2q-3.843-8.949-7.875-17.867,1.157-21.488,2.231-42.979,5.236,30.407,9.382,60.846Z" transform="translate(202.781 115.532)" fill="#36566b"/>
          <path id="Trazado_646252" data-name="Trazado 646252" d="M32.319,32.83Q19.952,41.277,8.041,50.052q6.175,8.093,12.109,16.273Q26.083,49.542,32.319,32.83" transform="translate(228.036 96.373)" fill="#466a87"/>
          <path id="Trazado_646253" data-name="Trazado 646253" d="M38.96,141.185H38q8.412-25.1,18-50.02Q70.395,58.025,87.13,25.4,73.754,58.436,62.274,91.827q-12.391,24.51-23.314,49.359" transform="translate(55.306 74.55)" fill="#36566b"/>
          <path id="Trazado_646254" data-name="Trazado 646254" d="M22.192,30.468q2.462-2.745,4.955-5.47l-.567,9.327q1.464.165,2.936.338.767,9.7,1.492,19.414,4.87-5.543,9.854-11.035,3.312-1.671,6.647-3.322.46-5.956.925-11.909c.063-1.5.122-3.011.185-4.514-.228-.374-.457-.752-.685-1.126Q42.828,13.819,37.54,5.521q-6.033,7.172-11.9,14.408Q23.9,25.194,22.192,30.468" transform="translate(156.045 16.208)" fill="#cfd8dc"/>
          <path id="Trazado_646255" data-name="Trazado 646255" d="M27.546,47.039c1.98-.571,13.227-8.859,13.306-6.442.028,1.149-.283,15.195-.189,14.986.22-.669,11.83-20.441,11.9-20.417a56.766,56.766,0,0,1,3.314,6.387c.512,1.641,5.124-15.71,5.148-15.706q3.772,1.535,7.525,3.1-3.335-6.83-6.765-13.632-2.6-2.438-5.238-4.864c-.323-.437-.645-.87-.968-1.307Q41.027,27.887,27.546,47.039" transform="translate(115.044 26.843)" fill="#cfd8dc"/>
          <path id="Trazado_646256" data-name="Trazado 646256" d="M31.076,26.791q3.825-2.048,7.686-4.065-1.877,9.055-3.7,18.115-3.672,8.991-7.214,18.013,1.576-16.033,3.231-32.062" transform="translate(143.655 66.713)" fill="#304b61"/>
          <path id="Trazado_646257" data-name="Trazado 646257" d="M35.918,49.685q-6.517-15.4-13.538-30.7-2.686-.189-5.372-.366,5.466,10.8,10.665,21.665,4.162,4.681,8.245,9.4" transform="translate(189.148 54.666)" fill="#304b61"/>
          <path id="Trazado_646258" data-name="Trazado 646258" d="M49.042,57.66a15.982,15.982,0,0,1,31.925,1.133c0,10.87-15.773,31.267-15.773,31.267S50.006,71.8,49.038,59.959c-.035-.394-.051-.783-.051-1.165s.028-.76.055-1.133m5.2,5.923a11.653,11.653,0,1,0-1.023-4.789,11.736,11.736,0,0,0,1.023,4.789" transform="translate(18.247 125.674)" fill="#af0e29"/>
          <path id="Trazado_646259" data-name="Trazado 646259" d="M49.4,56.258a14.351,14.351,0,0,1,28.666,1.019c0,9.76-14.364,29.087-14.364,29.087s-13.436-17.4-14.309-28.04c-.028-.358-.043-.708-.043-1.047s.028-.681.051-1.019m7.249,4.168a7.667,7.667,0,1,0-.673-3.148,7.716,7.716,0,0,0,.673,3.148" transform="translate(19.742 126.006)" fill="#ce1b31"/>
          <path id="Trazado_646260" data-name="Trazado 646260" d="M48.873,58.452c0,.378.016.771.051,1.165.362,4.435,2.7,9.937,5.458,15.077A134.8,134.8,0,0,0,64.855,90.849s.216-.291.594-.815c2.889-4.018,15.407-21.964,15.407-31.582A16,16,0,0,0,65.449,42.486c-.2-.008-.394-.016-.594-.016A15.969,15.969,0,0,0,48.932,57.318c-.024.378-.059.756-.059,1.133" transform="translate(18.805 124.671)" fill="#f42a39"/>
          <path id="Trazado_646261" data-name="Trazado 646261" d="M50.859,58.452c0,.378.016.771.051,1.165.362,4.435,2.7,9.937,5.458,15.077,1.1-16.824,10.484-25.738,18.658-29.969a15.882,15.882,0,0,0-7.591-2.239c-.2-.008-.394-.016-.594-.016A15.969,15.969,0,0,0,50.918,57.318c-.024.378-.059.756-.059,1.133" transform="translate(16.819 124.671)" fill="#f74d62"/>
          <path id="Trazado_646262" data-name="Trazado 646262" d="M50.479,54.309A10.106,10.106,0,1,0,60.585,44.2,10.108,10.108,0,0,0,50.479,54.309" transform="translate(22.65 129.758)" fill="#fff"/>
          <path id="Trazado_646263" data-name="Trazado 646263" d="M22.575,33.869a12.036,12.036,0,0,1,24.042.858c0,8.182-11.877,23.546-11.877,23.546S23.3,44.522,22.571,35.6c-.024-.3-.039-.594-.039-.878s.024-.571.043-.858m3.916,4.463a8.749,8.749,0,1,0-.771-3.6,8.84,8.84,0,0,0,.771,3.6" transform="translate(156.709 66.601)" fill="#af0e29"/>
          <path id="Trazado_646264" data-name="Trazado 646264" d="M22.84,32.812a10.809,10.809,0,0,1,21.59.771c0,7.347-10.819,21.9-10.819,21.9S23.49,42.379,22.832,34.371c-.02-.268-.031-.531-.031-.787s.02-.516.039-.771M28.3,35.953a5.741,5.741,0,1,0-.508-2.369,5.812,5.812,0,0,0,.508,2.369" transform="translate(157.837 66.851)" fill="#ce1b31"/>
          <path id="Trazado_646265" data-name="Trazado 646265" d="M22.445,34.468c0,.283.012.582.039.878.272,3.341,2.027,7.481,4.109,11.354a101.122,101.122,0,0,0,7.891,12.164s.161-.216.445-.61C37.1,55.227,46.534,41.709,46.534,34.468A12.044,12.044,0,0,0,34.928,22.445c-.15-.008-.3-.016-.445-.016A12.027,12.027,0,0,0,22.492,33.614c-.02.283-.047.571-.047.854" transform="translate(157.134 65.841)" fill="#f42a39"/>
          <path id="Trazado_646266" data-name="Trazado 646266" d="M23.941,34.468c0,.283.012.582.039.878.272,3.341,2.027,7.481,4.109,11.354.826-12.672,7.895-19.386,14.054-22.57a11.936,11.936,0,0,0-5.718-1.684c-.15-.008-.3-.016-.445-.016A12.027,12.027,0,0,0,23.988,33.614c-.02.283-.047.571-.047.854" transform="translate(155.638 65.841)" fill="#f74d62"/>
          <path id="Trazado_646267" data-name="Trazado 646267" d="M23.655,31.346a7.611,7.611,0,1,0,7.611-7.611,7.612,7.612,0,0,0-7.611,7.611" transform="translate(160.029 69.675)" fill="#fff"/>
        </g>
      </g>
    </g>
    <g id="Grupo_928503" data-name="Grupo 928503" transform="translate(469 2277.232)">
      <g id="Grupo_928494" data-name="Grupo 928494" transform="translate(0 0)">
        <g id="Grupo_928493" data-name="Grupo 928493" clip-path="url(#clip-path-2)">
          <path id="Trazado_646268" data-name="Trazado 646268" d="M13.6,78.23a1.674,1.674,0,0,0-1.1-.159l.06.383a1.307,1.307,0,0,1,.84.112.607.607,0,0,1,.317.623.717.717,0,0,1-.609.456,2.785,2.785,0,0,1-.729-.017c-.086-.01-.172-.019-.259-.026A4.726,4.726,0,0,0,8.385,81l.278.271a4.339,4.339,0,0,1,3.425-1.288c.083.007.166.017.249.026a3.142,3.142,0,0,0,.83.014,1.094,1.094,0,0,0,.927-.747.993.993,0,0,0-.5-1.05" transform="translate(3.63 33.784)" fill="#355168"/>
          <path id="Trazado_646269" data-name="Trazado 646269" d="M12.689,72.4A13.573,13.573,0,0,1,6.97,73.628c4.223,3.6,7.477,1.583,7.947,1.237l-.633-1.78a1.188,1.188,0,0,0-1.595-.689" transform="translate(3.017 31.295)" fill="#203342"/>
          <path id="Trazado_646270" data-name="Trazado 646270" d="M16.524,74.7a2.428,2.428,0,0,0-1.651-.368,4.566,4.566,0,0,0-.592.11c-.33.08-.661.186-1,.281-.13.037-.262.072-.4.1-.049.01-.1.021-.148.03a4.439,4.439,0,0,1-1.129.053c-.188-.014-.38-.037-.573-.069a8.065,8.065,0,0,1-.944-.219c-.185-.054-.37-.113-.553-.181-.095-.033-.188-.069-.282-.1-.252-.1-.5-.2-.754-.32-.175-.082-.35-.168-.522-.255-.259-.135-.516-.277-.765-.424-.163-.1-.324-.195-.48-.3-.265-.171-.52-.345-.761-.523-.155-.115-.3-.228-.446-.342s-.3-.249-.44-.373a6.832,6.832,0,0,1-.775-.792c-1.4-1.7-2.244-1.232-2.244-1.232s-1.149.54-1.4.692c-.083,2.444,2.485,6.042,3.511,7.515a8.443,8.443,0,0,1,1.41,1.463.2.2,0,0,1,.021.027c.021.026.043.054.063.08l.019.023.064.085.082.109A12.152,12.152,0,0,1,6.817,81.3l.029.054c.073.143.133.277.181.4a2.469,2.469,0,0,0,.185.357,29.034,29.034,0,0,0,2.025,2.705c.023.027.044.054.067.083a11.536,11.536,0,0,0,4.9-1.1l.251-.261,3.174-1.964a2.517,2.517,0,0,0,.864-2.083c.113-1.631-.517-3.875-1.97-4.792" transform="translate(0.29 30.18)" fill="#b0bec5"/>
          <path id="Trazado_646271" data-name="Trazado 646271" d="M8.049,82.262l1.992-1.121.037-.021L11.6,79.545a11.524,11.524,0,0,1-4.9,1.1c.731.9,1.354,1.618,1.354,1.618" transform="translate(2.898 34.433)" fill="#939598"/>
          <path id="Trazado_646272" data-name="Trazado 646272" d="M7.486,77.025a14.189,14.189,0,0,1-3.93-5.431l-.009-.03A3.764,3.764,0,0,0,1.1,72.3,28.353,28.353,0,0,0,4,77.189c.363.52.994.949,1.41,1.462l.021.027.007.009c.019.024.039.047.057.073l.017.023c.021.027.044.056.064.085s.056.072.083.109a10.991,10.991,0,0,1,.95,1.479c.009.017.016.033.026.05l.027.054c.117.225.246.481.367.752A28.8,28.8,0,0,0,9.05,84.017a2.477,2.477,0,0,0,.3-.219c2.188-1.9-.146-5.448-1.861-6.773" transform="translate(0.475 30.976)" fill="#939598"/>
          <path id="Trazado_646273" data-name="Trazado 646273" d="M4.311,71.01c-1.394-1.7-2.244-1.232-2.244-1.232s-1.148.539-1.4.692a6.527,6.527,0,0,0,.612,2.625,3.764,3.764,0,0,1,2.449-.735c-.063-.245-.1-.447-.13-.615a.275.275,0,0,1,.469-.234.866.866,0,0,0,1.016.291,6.948,6.948,0,0,1-.775-.792" transform="translate(0.29 30.18)" fill="#203342"/>
          <path id="Trazado_646274" data-name="Trazado 646274" d="M13.93,73.311a2.428,2.428,0,0,0-1.651-.368,4.566,4.566,0,0,0-.592.11c-.33.08-.661.186-1,.281-.13.037-.262.072-.4.1-.049.01-.1.021-.148.03a4.439,4.439,0,0,1-1.129.053c-.188-.014-.38-.037-.573-.069a8.065,8.065,0,0,1-.944-.219c-.185-.054-.37-.113-.553-.181-.095-.033-.188-.069-.282-.1a12.534,12.534,0,0,0,.949,4.395c.39.888,1.525,3.181,2.837,2.516,1.178-.6-.665-3.068.216-4.714l2.467-.616a18.036,18.036,0,0,1,.855,2.947,5.81,5.81,0,0,1-.835,3.879l1.887-1.168A2.517,2.517,0,0,0,15.9,78.1c.113-1.631-.517-3.875-1.97-4.792" transform="translate(2.883 31.567)" fill="#939598"/>
          <path id="Trazado_646275" data-name="Trazado 646275" d="M5.363,78.564C1.952,75.262,1.148,70,1.148,70l-.695.327L0,70.543l.133,1.228.35.011.284.737-.4.188.416,1.225.314-.138.473,1.132-.33.2.6,1.056.248-.153.509.824-.077.334.638,1.03.364-.054.43.418-.171.277.6.423.165-.1L5.5,80.25l-.063.267.51.824.2-.126.248,1.043-.466.63.383.618.248-.153.305.494-.288.179.612.989.33-.2.332.534-.33.2.764,1.237.371-.231.4.377-.079.334.934.221.35-.268.357-.269.265-.2.046-.036a.244.244,0,0,0,.056-.332c-.6-.911-3.253-4.873-5.625-7.815" transform="translate(0 30.303)" fill="#939598"/>
          <path id="Trazado_646276" data-name="Trazado 646276" d="M10.785,72.425a.1.1,0,1,0-.138.136,1.327,1.327,0,0,1,.32.43.4.4,0,0,1-.07.431.411.411,0,0,1-.527-.075,1.392,1.392,0,0,1-.288-.615.1.1,0,0,0-.119-.066.1.1,0,0,0-.067.119,2.065,2.065,0,0,0,.209.533.875.875,0,0,0,.128.165.6.6,0,0,0,.794.085.588.588,0,0,0,.122-.645,1.453,1.453,0,0,0-.363-.5" transform="translate(4.282 31.339)" fill="#f15a29"/>
          <path id="Trazado_646277" data-name="Trazado 646277" d="M9.751,72.878A.1.1,0,0,0,9.689,73a1.385,1.385,0,0,1,.1.52.4.4,0,0,1-.239.357.4.4,0,0,1-.414-.188,1.337,1.337,0,0,1-.171-.536.1.1,0,0,0-.112-.079.1.1,0,0,0-.08.112,1.63,1.63,0,0,0,.182.58l.021.033a.533.533,0,0,0,1.006-.264,1.537,1.537,0,0,0-.109-.6.1.1,0,0,0-.122-.062" transform="translate(3.797 31.545)" fill="#f15a29"/>
          <path id="Trazado_646278" data-name="Trazado 646278" d="M8.852,73.1a.1.1,0,0,0-.039.132.5.5,0,1,1-.923.116.1.1,0,0,0-.07-.118.1.1,0,0,0-.117.07.713.713,0,0,0,.09.539.679.679,0,0,0,.236.232.694.694,0,0,0,.954-.933.1.1,0,0,0-.132-.039" transform="translate(3.326 31.64)" fill="#f15a29"/>
          <path id="Trazado_646279" data-name="Trazado 646279" d="M7.469,73.309a.326.326,0,1,1-.573-.152.1.1,0,0,0-.013-.136.1.1,0,0,0-.138.013.534.534,0,0,0-.037.606.315.315,0,0,0,.024.036.519.519,0,0,0,.927-.4.1.1,0,0,0-.191.033" transform="translate(2.871 31.6)" fill="#f15a29"/>
          <path id="Trazado_646280" data-name="Trazado 646280" d="M6.541,72.741a.1.1,0,0,0-.133-.032.1.1,0,0,0-.032.133.3.3,0,0,1,.023.234.334.334,0,0,1-.166.2.4.4,0,0,1-.48-.138.5.5,0,0,1,0-.537.1.1,0,0,0-.166-.1.7.7,0,0,0-.009.719l.019.03a.593.593,0,0,0,.725.2.525.525,0,0,0,.267-.327A.492.492,0,0,0,6.541,72.741Z" transform="translate(2.372 31.366)" fill="#f15a29"/>
          <path id="Trazado_646281" data-name="Trazado 646281" d="M5.532,72.307a.335.335,0,0,1-.587-.261.1.1,0,0,0-.083-.109.1.1,0,0,0-.109.082.528.528,0,0,0,.077.351.52.52,0,0,0,.232.2.539.539,0,0,0,.619-.143.1.1,0,0,0-.149-.125" transform="translate(2.055 31.14)" fill="#f15a29"/>
          <path id="Trazado_646282" data-name="Trazado 646282" d="M4.083,71.37a.1.1,0,0,0-.109-.082.1.1,0,0,0-.083.109.8.8,0,0,0,.106.32.708.708,0,0,0,.735.238.1.1,0,1,0-.017-.192c-.344.03-.573.019-.632-.393" transform="translate(1.684 30.859)" fill="#f15a29"/>
          <path id="Trazado_646283" data-name="Trazado 646283" d="M10.523,72.956h-.006a.278.278,0,0,0-.189.421l.367.593.479-.3-.367-.592a.28.28,0,0,0-.284-.128" transform="translate(4.452 31.58)" fill="#203342"/>
          <path id="Trazado_646284" data-name="Trazado 646284" d="M9.661,73.338a.139.139,0,0,0-.173-.1c-.086.021-.173.044-.261.064h0a.144.144,0,0,0-.107.176l.15.557.125.463.542-.146-.123-.463Z" transform="translate(3.945 31.701)" fill="#203342"/>
          <path id="Trazado_646285" data-name="Trazado 646285" d="M8.489,73.572a.276.276,0,0,0-.244-.245H8.24a.279.279,0,0,0-.31.307l.047.433.054.477.559-.062L8.537,74Z" transform="translate(3.432 31.741)" fill="#203342"/>
          <path id="Trazado_646286" data-name="Trazado 646286" d="M7.227,73.1H7.221a.278.278,0,0,0-.364.251l-.017.39-.023.48.562.024.021-.477.019-.39a.278.278,0,0,0-.192-.277" transform="translate(2.951 31.637)" fill="#203342"/>
          <path id="Trazado_646287" data-name="Trazado 646287" d="M6.19,72.7a.277.277,0,0,0-.423.176l-.08.394-.095.47.55.112.095-.469.077-.4a.275.275,0,0,0-.12-.285l0,0" transform="translate(2.421 31.453)" fill="#203342"/>
          <path id="Trazado_646288" data-name="Trazado 646288" d="M5.271,72.16a.277.277,0,0,0-.391.11l-.029.056-.218.426.5.256.219-.427.029-.054a.278.278,0,0,0-.1-.364l0,0" transform="translate(2.006 31.219)" fill="#203342"/>
          <path id="Trazado_646289" data-name="Trazado 646289" d="M4.112,71.5l-.312.364.426.365.312-.364.079-.092c-.156-.113-.305-.228-.446-.341Z" transform="translate(1.645 30.922)" fill="#203342"/>
          <path id="Trazado_646290" data-name="Trazado 646290" d="M10.63,73.309a.417.417,0,1,0,.575.135.417.417,0,0,0-.575-.135" transform="translate(4.516 31.707)" fill="#bcbec0"/>
          <path id="Trazado_646291" data-name="Trazado 646291" d="M9.508,73.762a.417.417,0,1,0,.512.294.417.417,0,0,0-.512-.294" transform="translate(3.982 31.924)" fill="#bcbec0"/>
          <path id="Trazado_646292" data-name="Trazado 646292" d="M8.272,73.836a.417.417,0,1,0,.46.368.417.417,0,0,0-.46-.368" transform="translate(3.42 31.961)" fill="#bcbec0"/>
          <path id="Trazado_646293" data-name="Trazado 646293" d="M7.159,73.567a.417.417,0,1,0,.4.436.417.417,0,0,0-.4-.436" transform="translate(2.91 31.846)" fill="#bcbec0"/>
          <path id="Trazado_646294" data-name="Trazado 646294" d="M6,73.147a.417.417,0,1,0,.325.491A.417.417,0,0,0,6,73.147" transform="translate(2.38 31.66)" fill="#bcbec0"/>
          <path id="Trazado_646295" data-name="Trazado 646295" d="M4.575,72.562a.417.417,0,1,0,.562-.181.418.418,0,0,0-.562.181" transform="translate(1.961 31.312)" fill="#bcbec0"/>
          <path id="Trazado_646296" data-name="Trazado 646296" d="M3.777,71.695a.417.417,0,1,0,.587-.044.418.418,0,0,0-.587.044" transform="translate(1.591 30.972)" fill="#bcbec0"/>
          <path id="Trazado_646297" data-name="Trazado 646297" d="M7.124,83.246c-.888-2.357-1.059-3.277-2.685-4.892A19.944,19.944,0,0,1,.453,70.231L0,70.444l.133,1.228.35.011.284.736-.4.188.416,1.225L1.1,73.7l.473,1.132-.33.2.6,1.055.246-.153.51.825-.077.332.636,1.03.365-.054.43.418-.171.277.6.424.165-.1.944,1.067-.062.268.509.824.206-.128.248,1.043-.466.63.383.618.248-.153.305.494-.288.179.612.989.33-.2.331.536-.33.2.765,1.237.371-.229.4.377-.079.332.934.221.35-.267a10.338,10.338,0,0,1-3.141-3.876" transform="translate(0 30.402)" fill="#203342"/>
          <path id="Trazado_646298" data-name="Trazado 646298" d="M9.562,78.3a.5.5,0,1,0,.689.162.5.5,0,0,0-.689-.162" transform="translate(4.036 33.864)" fill="#f15a29"/>
          <path id="Trazado_646299" data-name="Trazado 646299" d="M52.985,35.175l-6.477-4.336L41.139,28.3,39.06,31.291l4.452,5.021,5.244,4.12c.278-.059,4.925,2.685,4.925,2.685s2.4-4.581,2.578-4.714c.3-.228-3.274-3.227-3.274-3.227" transform="translate(16.908 12.249)" fill="#edb996"/>
          <path id="Trazado_646300" data-name="Trazado 646300" d="M37.085,24.67l-.337.172c-1.527,1.881-1.4,1.343-2.187,3.644l-.844,2.06L36.863,33.5s6.194,2.247,6.554,2.4l2.907-5.481-4.489-3.247Z" transform="translate(14.596 10.679)" fill="#e2791a"/>
          <path id="Trazado_646301" data-name="Trazado 646301" d="M9.406,50.587l-.033.424a.963.963,0,0,1,.7.272.758.758,0,0,1,.145.741.671.671,0,0,1-.633.4,1.978,1.978,0,0,1-.636-.152q-.112-.041-.224-.077a4.008,4.008,0,0,0-3.737.917l.176.37a3.68,3.68,0,0,1,3.442-.857c.072.023.143.049.216.075a2.222,2.222,0,0,0,.732.168,1.04,1.04,0,0,0,.973-.671,1.247,1.247,0,0,0-.216-1.238,1.234,1.234,0,0,0-.91-.37" transform="translate(2.161 21.898)" fill="#355168"/>
          <path id="Trazado_646302" data-name="Trazado 646302" d="M10.383,45.091a10.04,10.04,0,0,1-4.74.036c2.591,4.1,5.62,2.777,6.048,2.542l-.2-1.7a.938.938,0,0,0-1.108-.878" transform="translate(2.443 19.509)" fill="#203342"/>
          <path id="Trazado_646303" data-name="Trazado 646303" d="M11.712,47.34a3.381,3.381,0,0,0-.483-.01c-.274.011-.555.044-.841.067-.11.007-.222.014-.335.019H9.93a3.2,3.2,0,0,1-.906-.159,4.443,4.443,0,0,1-.441-.163,5.725,5.725,0,0,1-.7-.365c-.135-.08-.267-.166-.4-.258-.066-.047-.133-.095-.2-.143-.178-.13-.351-.269-.519-.414-.119-.1-.235-.208-.35-.315-.171-.162-.337-.33-.5-.5-.1-.11-.2-.224-.3-.335q-.245-.288-.459-.576c-.09-.122-.176-.242-.256-.363s-.169-.258-.241-.384a4.963,4.963,0,0,1-.384-.777c-.593-1.573-1.378-1.373-1.378-1.373s-1.05.2-1.29.277c-.86,1.947.046,5.57.417,7.144a7.025,7.025,0,0,1,.726,1.7l.009.032c.01.03.019.063.029.093l.007.027c.01.032.019.064.029.1s.024.083.036.125a12.107,12.107,0,0,1,.348,1.762l.007.063c.017.166.026.32.027.457a2.792,2.792,0,0,0,.046.417,30.859,30.859,0,0,0,.941,3.432c.013.037.024.075.036.112a9.162,9.162,0,0,0,4.809-.361l.292-.251,3.2-1.582c.663-.328.931-1.254,1.1-2.006.364-1.583.226-3.789-.754-4.866a1.8,1.8,0,0,0-1.218-.618" transform="translate(0.545 17.87)" fill="#b0bec5"/>
          <path id="Trazado_646304" data-name="Trazado 646304" d="M3.364,52.376c.387,1.211.736,2.212.736,2.212l2.221-1,.04-.017,1.811-1.559a9.161,9.161,0,0,1-4.809.36" transform="translate(1.456 22.517)" fill="#939598"/>
          <path id="Trazado_646305" data-name="Trazado 646305" d="M3.442,42.993l0-.026a3.3,3.3,0,0,0-2.187.152,23.588,23.588,0,0,0,.777,4.916c.135.57.536,1.109.725,1.7a.238.238,0,0,1,.009.03l0,.01c.009.029.017.056.024.085l.009.026c.01.032.019.064.029.1s.023.082.034.125a10.723,10.723,0,0,1,.342,1.705c0,.019,0,.037.006.056s.006.042.007.063c.029.262.059.56.075.875a31.029,31.029,0,0,0,.941,3.432,2.976,2.976,0,0,0,.35-.2c2.569-1.751,1.532-5.891.46-7.5a11.612,11.612,0,0,1-1.608-5.54" transform="translate(0.545 18.547)" fill="#939598"/>
          <path id="Trazado_646306" data-name="Trazado 646306" d="M2.907,41.291s-1.05.2-1.291.277A5.518,5.518,0,0,0,1.258,43.8a3.3,3.3,0,0,1,2.187-.15c.023-.212.05-.385.079-.526.046-.219.341-.285.434-.1a.622.622,0,0,0,.711.421,5.14,5.14,0,0,1-.383-.777c-.593-1.573-1.378-1.373-1.378-1.373" transform="translate(0.544 17.87)" fill="#203342"/>
          <path id="Trazado_646307" data-name="Trazado 646307" d="M10.013,45.816a3.381,3.381,0,0,0-.483-.01c-.274.011-.555.044-.841.067-.11.007-.222.014-.335.019H8.231a3.2,3.2,0,0,1-.906-.159,4.443,4.443,0,0,1-.441-.163,5.725,5.725,0,0,1-.7-.365c-.135-.08-.267-.166-.4-.258-.066-.047-.133-.095-.2-.143a13.089,13.089,0,0,0-.36,4.231c.093.956.451,3.552,1.774,3.085,1.156-.408.186-3.223,1.281-4.618l2.1-.12a19.953,19.953,0,0,1,.135,2.949A7.3,7.3,0,0,1,9,54.231l1.877-.926c.663-.328.931-1.254,1.1-2.006.364-1.583.226-3.789-.754-4.866a1.8,1.8,0,0,0-1.218-.618" transform="translate(2.244 19.394)" fill="#939598"/>
          <path id="Trazado_646308" data-name="Trazado 646308" d="M2.172,41.319l-.643.123-.424.082-.3,1,.274.075-.016.653-.384.08L.6,44.441l.3-.057v1.069l-.345.117.126,1.06.262-.092.142.853-.186.3.179,1.1.335.017.225.487-.248.238.377.536L1.949,50l.459,1.257-.15.264.165.96.229-.1L2.5,53.549l-.655.6.123.767.287-.126.1.62-.335.149.2,1.272.387-.179.116.7-.39.182.268,1.668.446-.216.252.549-.2.408.831.457.436-.275.437-.275.325-.2.056-.036a.4.4,0,0,0,.165-.4c-.269-1.227-1.387-6.216-2.492-9.666-1.768-3.723-.695-8.225-.695-8.225" transform="translate(0.241 17.886)" fill="#939598"/>
          <path id="Trazado_646309" data-name="Trazado 646309" d="M8.722,45.034a.093.093,0,0,0-.027.118,1.126,1.126,0,0,1,.168.428.388.388,0,0,1-.135.364c-.135.086-.318-.016-.4-.16a1.3,1.3,0,0,1-.1-.585.076.076,0,0,0-.08-.079.086.086,0,0,0-.076.09,2.012,2.012,0,0,0,.057.5.884.884,0,0,0,.069.166.441.441,0,0,0,.6.216.568.568,0,0,0,.215-.54,1.315,1.315,0,0,0-.188-.494.072.072,0,0,0-.106-.026" transform="translate(3.493 19.489)" fill="#f15a29"/>
          <path id="Trazado_646310" data-name="Trazado 646310" d="M7.942,45.255a.089.089,0,0,0-.073.095,1.345,1.345,0,0,1-.03.474c-.037.122-.136.261-.264.275s-.246-.112-.288-.242a1.291,1.291,0,0,1-.02-.5.08.08,0,0,0-.072-.09.089.089,0,0,0-.086.085,1.529,1.529,0,0,0,.017.544l.01.033a.449.449,0,0,0,.444.348.54.54,0,0,0,.407-.4,1.53,1.53,0,0,0,.037-.542.076.076,0,0,0-.083-.076" transform="translate(3.071 19.59)" fill="#f15a29"/>
          <path id="Trazado_646311" data-name="Trazado 646311" d="M7.139,45.409a.515.515,0,0,1-.2.512.391.391,0,0,1-.5-.042.479.479,0,0,1-.057-.534.086.086,0,0,0-.029-.116.082.082,0,0,0-.11.04.7.7,0,0,0-.054.493.561.561,0,0,0,.135.251.54.54,0,0,0,.689.057.721.721,0,0,0,.282-.711A.074.074,0,0,0,7.2,45.3a.1.1,0,0,0-.06.109" transform="translate(2.669 19.575)" fill="#f15a29"/>
          <path id="Trazado_646312" data-name="Trazado 646312" d="M6.055,45.263a.333.333,0,0,1-.241.277.249.249,0,0,1-.287-.162.339.339,0,0,1,.107-.352.094.094,0,0,0,.023-.122.074.074,0,0,0-.112-.013.537.537,0,0,0-.183.526l.011.036a.4.4,0,0,0,.459.261.528.528,0,0,0,.383-.444.076.076,0,0,0-.07-.089.09.09,0,0,0-.09.083" transform="translate(2.316 19.424)" fill="#f15a29"/>
          <path id="Trazado_646313" data-name="Trazado 646313" d="M5.366,44.547a.1.1,0,0,0-.06.109.278.278,0,0,1-.04.2.328.328,0,0,1-.186.149.3.3,0,0,1-.348-.209.49.49,0,0,1,.139-.463.089.089,0,0,0,.009-.119.078.078,0,0,0-.115,0,.686.686,0,0,0-.2.618l.009.03a.439.439,0,0,0,.527.308.506.506,0,0,0,.3-.235.465.465,0,0,0,.064-.344.072.072,0,0,0-.1-.052" transform="translate(1.971 19.131)" fill="#f15a29"/>
          <path id="Trazado_646314" data-name="Trazado 646314" d="M4.417,44.052a.284.284,0,0,1-.06-.331.078.078,0,0,0-.036-.107.089.089,0,0,0-.109.05.491.491,0,0,0-.034.308.387.387,0,0,0,.129.215.43.43,0,0,0,.529-.007.089.089,0,0,0,.027-.118.077.077,0,0,0-.112-.014.277.277,0,0,1-.334,0" transform="translate(1.804 18.877)" fill="#f15a29"/>
          <path id="Trazado_646315" data-name="Trazado 646315" d="M3.857,43a.072.072,0,0,0-.063-.087.094.094,0,0,0-.095.075.669.669,0,0,0-.006.281c.06.269.334.308.513.332a.091.091,0,0,0,.1-.072.072.072,0,0,0-.059-.092c-.278-.039-.456-.09-.388-.437" transform="translate(1.594 18.578)" fill="#f15a29"/>
          <path id="Trazado_646316" data-name="Trazado 646316" d="M8.522,45.5h0a.255.255,0,0,0-.229.335l.175.595.431-.179-.175-.587a.22.22,0,0,0-.2-.163" transform="translate(3.583 19.697)" fill="#203342"/>
          <path id="Trazado_646317" data-name="Trazado 646317" d="M7.769,45.674a.113.113,0,0,0-.116-.119c-.073,0-.146.009-.219.01h0a.133.133,0,0,0-.122.136v.967l.464-.034,0-.44Z" transform="translate(3.164 19.72)" fill="#203342"/>
          <path id="Trazado_646318" data-name="Trazado 646318" d="M6.7,45.416h0a.251.251,0,0,0-.318.215l-.063.4-.07.441.467.046.066-.441.06-.394a.232.232,0,0,0-.138-.262" transform="translate(2.702 19.654)" fill="#203342"/>
          <path id="Trazado_646319" data-name="Trazado 646319" d="M5.959,45.028a.244.244,0,0,0-.352.153l-.112.341-.139.426.447.126.136-.424.109-.342a.237.237,0,0,0-.085-.277l0,0" transform="translate(2.318 19.478)" fill="#203342"/>
          <path id="Trazado_646320" data-name="Trazado 646320" d="M5.239,44.491a.234.234,0,0,0-.383.075l-.168.327-.2.4.414.2.2-.4.165-.331a.242.242,0,0,0-.023-.267l0,0" transform="translate(1.941 19.228)" fill="#203342"/>
          <path id="Trazado_646321" data-name="Trazado 646321" d="M4.618,43.856a.228.228,0,0,0-.34.021l-.037.042-.291.321.33.312.289-.325.037-.042a.248.248,0,0,0,.014-.327l0,0" transform="translate(1.71 18.956)" fill="#203342"/>
          <path id="Trazado_646322" data-name="Trazado 646322" d="M3.867,43.1l-.348.241.235.383L4.1,43.48l.087-.062c-.092-.122-.178-.244-.256-.363Z" transform="translate(1.523 18.638)" fill="#203342"/>
          <path id="Trazado_646323" data-name="Trazado 646323" d="M8.547,45.824a.407.407,0,0,0-.216.487.317.317,0,0,0,.427.225.407.407,0,0,0,.214-.49.317.317,0,0,0-.424-.222" transform="translate(3.599 19.826)" fill="#bcbec0"/>
          <path id="Trazado_646324" data-name="Trazado 646324" d="M7.575,46.027a.4.4,0,0,0-.345.41.337.337,0,0,0,.348.361.4.4,0,0,0,.342-.413.337.337,0,0,0-.345-.358" transform="translate(3.13 19.924)" fill="#bcbec0"/>
          <path id="Trazado_646325" data-name="Trazado 646325" d="M6.574,45.868a.4.4,0,0,0-.406.35.347.347,0,0,0,.285.423.4.4,0,0,0,.406-.355.345.345,0,0,0-.285-.417" transform="translate(2.668 19.855)" fill="#bcbec0"/>
          <path id="Trazado_646326" data-name="Trazado 646326" d="M5.747,45.425a.39.39,0,0,0-.453.277.354.354,0,0,0,.212.467.387.387,0,0,0,.453-.281.353.353,0,0,0-.212-.463" transform="translate(2.283 19.658)" fill="#bcbec0"/>
          <path id="Trazado_646327" data-name="Trazado 646327" d="M4.442,45.035a.357.357,0,0,0,.13.5.375.375,0,0,0,.486-.2.357.357,0,0,0-.133-.491.375.375,0,0,0-.483.193" transform="translate(1.902 19.398)" fill="#bcbec0"/>
          <path id="Trazado_646328" data-name="Trazado 646328" d="M3.944,44.072a.372.372,0,0,0-.011.514.348.348,0,0,0,.5-.052.372.372,0,0,0,.009-.513.349.349,0,0,0-.5.05" transform="translate(1.66 19.021)" fill="#bcbec0"/>
          <path id="Trazado_646329" data-name="Trazado 646329" d="M3.554,43.2a.38.38,0,0,0-.132.5.328.328,0,0,0,.48.072.38.38,0,0,0,.128-.5.328.328,0,0,0-.476-.072" transform="translate(1.461 18.669)" fill="#bcbec0"/>
          <path id="Trazado_646330" data-name="Trazado 646330" d="M2.108,49.221A16.568,16.568,0,0,1,1.529,41.4l-.424.082-.3,1,.274.075-.016.653-.384.08L.6,44.4l.3-.059v1.07l-.345.118.126,1.06L.944,46.5l.14.853-.185.3.179,1.1.335.016.225.489-.248.238.377.536.181-.07.459,1.257-.15.264.165.96.229-.1L2.5,53.511l-.655.6.123.767.287-.126.1.619-.335.15.2,1.272.387-.179.116.7-.39.182.268,1.668.446-.216.252.549-.2.408.831.457.436-.275a11.249,11.249,0,0,1-1.592-5.237c.024-2.731.189-3.715-.676-5.634" transform="translate(0.241 17.923)" fill="#203342"/>
          <path id="Trazado_646331" data-name="Trazado 646331" d="M6.588,50.51a.653.653,0,0,0-.32.721.4.4,0,0,0,.569.307.656.656,0,0,0,.314-.726.4.4,0,0,0-.563-.3" transform="translate(2.706 21.848)" fill="#f15a29"/>
          <path id="Trazado_646332" data-name="Trazado 646332" d="M74.069,55.719a4.488,4.488,0,0,1-2.1-2.022L56.521,51.16,38.362,41.69a4.52,4.52,0,0,0-3.4-.32L8.554,46.506l-.994,3.873-.378,8.165c5.529-.365,28.832-7.1,28.832-7.1S54.393,66.2,59.924,69.862c3.231,2.141,8.21.529,11.578-.388,1.844-.5,3.4-.563,4.655-2a11.381,11.381,0,0,0,2.179-6.418,6.161,6.161,0,0,0-.973-4.074c-1.047-1.388-2.068-.754-3.294-1.258" transform="translate(3.109 17.825)" fill="#2e4b59"/>
          <path id="Trazado_646333" data-name="Trazado 646333" d="M72.674,53.832,56.405,51.161l-18.159-9.47a4.527,4.527,0,0,0-3.4-.321L8.438,46.505,7.445,50.38l23.336-5.251a9.416,9.416,0,0,1,8.463,1.112c3.548,2.433,8.212,5.5,12.446,8.633,3.592,2.662,4.668,3.413,5.883,4.173A51.343,51.343,0,0,0,73.034,65.4l-.5-11.559Z" transform="translate(3.223 17.825)" fill="#365466"/>
          <path id="Trazado_646334" data-name="Trazado 646334" d="M44.589,30.144,43.8,39.059l3.9-.05-.017-8.715Z" transform="translate(18.962 13.049)" fill="#939598"/>
          <path id="Trazado_646335" data-name="Trazado 646335" d="M69.354,54.87l-.279-6.464c-2.849.123-6.126-.221-8.892.3-5.673,1.075-10.95,3.6-16.726,4.241-4.941.549-11.55.4-15.9,3.132l-3.875,3.642L8.467,81.627,9.6,83.4l5.668,8.215L28.854,72.453l3.155-5.959s10-.54,11.525-.381c5.591.583,14.158,1.537,19.8,1.609,3.448.043,3.161-2.473,6.024-4.342,2.446-1.595,2.722-5.059,2.576-8.622Z" transform="translate(3.665 20.954)" fill="#2e4b59"/>
          <path id="Trazado_646336" data-name="Trazado 646336" d="M58.784,9.814l-3.8-1.156-5.491,1.7c-.686-.533-4.866,1.785-5.537,2.3-1.158.9-.986,1.91-.982,3.187a12.463,12.463,0,0,0-.009,2.457c.115.58.95,1.513.957,1.962A7.4,7.4,0,0,1,43.4,23.24a1.068,1.068,0,0,0,.732,1.4l.8.208.09,1.311,1.153.328-.722.771a4.809,4.809,0,0,1,.94,2.232.774.774,0,0,0,.754.6l1.433,0,3.184-.612.648,2.48,8.607-4.584L58.99,23.1s2.84-8.69,2.7-8.882-2.9-4.4-2.9-4.4" transform="translate(18.567 3.748)" fill="#edb996"/>
          <path id="Trazado_646337" data-name="Trazado 646337" d="M59.054,9.1,55.205,7.793,49.716,9.5c-.225-.186-6.682,2.818-6.682,2.818l-.259,3.671v0c.044.169.07.262.07.262a41.728,41.728,0,0,0,9.043,1.466c4.605.16,4.465,3.412,4.465,3.412L56.3,23.506l1.348.278,1.887-.473a9.666,9.666,0,0,0,2.2-3.3A9.712,9.712,0,0,0,59.054,9.1" transform="translate(18.516 3.374)" fill="#5e3f37"/>
          <path id="Trazado_646338" data-name="Trazado 646338" d="M50.708,15.6l.324,3.956s-.553.417.8-.152c1.305-.722,1.734-2.707,1.151-4.392-1.047-1.548-2.274.587-2.274.587" transform="translate(21.95 6.257)" fill="#edb996"/>
          <path id="Trazado_646339" data-name="Trazado 646339" d="M54.605,15.132l.785,1.671,1.281-2.953-1.814-.421Z" transform="translate(23.637 5.813)" fill="#848689"/>
          <path id="Trazado_646340" data-name="Trazado 646340" d="M56.6,15.139l-1.884-.215v1.244l1.671.208a.241.241,0,0,0,.264-.195l.158-.739a.25.25,0,0,0-.209-.3" transform="translate(23.685 6.46)" fill="#6b727c"/>
          <path id="Trazado_646341" data-name="Trazado 646341" d="M51.5,22.044c-1.327-2.619-4.1-5.73-5.08-8.448l-1.3.671c1.082,3.033,3.945,6.449,5.517,9.428.02.6-1.636,2.859-1.609,3.832a9.1,9.1,0,0,0,1.479.006c-.03-.949,1.619-3.233,1.595-3.866l7.517-7.361-.794-1.44Z" transform="translate(19.533 5.886)" fill="#848689"/>
          <path id="Trazado_646342" data-name="Trazado 646342" d="M50.325,18.79a4.553,4.553,0,0,0-.777-.007,1.2,1.2,0,0,0-.961.719,1.73,1.73,0,0,0-.039,1.38c.116.282.221.567.312.848a1.24,1.24,0,0,0,1.206.931,1.283,1.283,0,0,0,1.1-1.022l.246-.946a1.712,1.712,0,0,0-.159-1.265,1.2,1.2,0,0,0-.929-.639m.59,1.712-.248.946a.736.736,0,0,1-.63.585.71.71,0,0,1-.692-.533c-.1-.3-.209-.595-.331-.891a.988.988,0,0,1,.021-.8.674.674,0,0,1,.55-.411l.066-.006a4.358,4.358,0,0,1,.638.011.692.692,0,0,1,.536.37.981.981,0,0,1,.09.726" transform="translate(20.962 8.125)" fill="#455256"/>
          <path id="Trazado_646343" data-name="Trazado 646343" d="M49.743,19.07a1.254,1.254,0,0,0-1.078,1.066,1.728,1.728,0,0,0-.033.416A1.293,1.293,0,0,0,49.876,21.9a1.334,1.334,0,0,0,1.112-1.492,1.658,1.658,0,0,0-.072-.41,1.208,1.208,0,0,0-1.174-.927" transform="translate(21.051 8.254)" fill="#6b727c"/>
          <path id="Trazado_646344" data-name="Trazado 646344" d="M49.675,19.3a.958.958,0,0,0-.824.815,1.352,1.352,0,0,0-.024.317.988.988,0,0,0,.95,1.029,1.022,1.022,0,0,0,.85-1.139,1.307,1.307,0,0,0-.054-.314.922.922,0,0,0-.9-.708" transform="translate(21.135 8.355)" fill="#848689"/>
          <path id="Trazado_646345" data-name="Trazado 646345" d="M49.753,22.812l-2.274.135a.253.253,0,0,0-.224.271l0,.087a.233.233,0,0,0,.235.239l2.28-.133A.253.253,0,0,0,50,23.139l0-.089a.237.237,0,0,0-.239-.238" transform="translate(20.456 9.875)" fill="#455256"/>
          <path id="Trazado_646346" data-name="Trazado 646346" d="M55.662,13.995l-.553-.126a1.375,1.375,0,0,0-.4-.029,1.42,1.42,0,0,0-1.255,1.116L53.2,16.108a1.434,1.434,0,0,0,1.036,1.727l.559.132a1.413,1.413,0,0,0,.4.032,1.43,1.43,0,0,0,1.265-1.136L56.71,15.7a1.431,1.431,0,0,0-1.047-1.708m.212,1.658-.192.887a.624.624,0,0,1-.754.5l-.427-.1a.647.647,0,0,1-.47-.779l.195-.884a.643.643,0,0,1,.569-.507.636.636,0,0,1,.181.013l.426.1a.648.648,0,0,1,.473.775" transform="translate(23.013 5.99)" fill="#455256"/>
          <path id="Trazado_646347" data-name="Trazado 646347" d="M52.768,14.982l.033.586a.387.387,0,0,0,.317.367l2.846.493L56.23,15.2l-3-.636a.4.4,0,0,0-.466.421" transform="translate(22.842 6.3)" fill="#6b727c"/>
          <path id="Trazado_646348" data-name="Trazado 646348" d="M46.15,14.988l.087.036-.087-.036" transform="translate(19.977 6.488)" fill="#ff8827"/>
          <path id="Trazado_646349" data-name="Trazado 646349" d="M46.247,15.027l.092.036-.092-.036" transform="translate(20.019 6.505)" fill="#ff8827"/>
          <path id="Trazado_646350" data-name="Trazado 646350" d="M45.4,14.691l.032.01-.032-.01" transform="translate(19.654 6.36)" fill="#ff8827"/>
          <path id="Trazado_646351" data-name="Trazado 646351" d="M45.559,14.744l.013,0-.013,0" transform="translate(19.722 6.383)" fill="#ff8827"/>
          <path id="Trazado_646352" data-name="Trazado 646352" d="M46.346,15.065l.11.042-.11-.042" transform="translate(20.062 6.521)" fill="#ff8827"/>
          <path id="Trazado_646353" data-name="Trazado 646353" d="M45.477,14.715l.026.009-.026-.009" transform="translate(19.686 6.37)" fill="#ff8827"/>
          <path id="Trazado_646354" data-name="Trazado 646354" d="M47.051,15.276l.133.024-.133-.024" transform="translate(20.367 6.613)" fill="#ff8827"/>
          <path id="Trazado_646355" data-name="Trazado 646355" d="M46.446,15.1l.15.053-.15-.053" transform="translate(20.105 6.537)" fill="#ff8827"/>
          <path id="Trazado_646356" data-name="Trazado 646356" d="M46.8,15.215c.107.03.216.056.327.08-.11-.024-.219-.05-.327-.08" transform="translate(20.257 6.586)" fill="#ff8827"/>
          <path id="Trazado_646357" data-name="Trazado 646357" d="M47.172,15.3c.113.019.228.033.344.042-.116-.009-.231-.023-.344-.042" transform="translate(20.42 6.622)" fill="#ff8827"/>
          <path id="Trazado_646358" data-name="Trazado 646358" d="M46.686,15.182l.126.037-.126-.037" transform="translate(20.209 6.572)" fill="#ff8827"/>
          <path id="Trazado_646359" data-name="Trazado 646359" d="M46.567,15.144l.132.043-.132-.043" transform="translate(20.158 6.556)" fill="#ff8827"/>
          <path id="Trazado_646360" data-name="Trazado 646360" d="M44.729,14.707l.075-.014-.075.014" transform="translate(19.362 6.36)" fill="#ff8827"/>
          <path id="Trazado_646361" data-name="Trazado 646361" d="M45.266,14.659l.037.007-.037-.007" transform="translate(19.595 6.346)" fill="#ff8827"/>
          <path id="Trazado_646362" data-name="Trazado 646362" d="M44.152,14.858l.139-.039-.139.039" transform="translate(19.112 6.415)" fill="#ff8827"/>
          <path id="Trazado_646363" data-name="Trazado 646363" d="M43.869,14.937l.153-.042-.153.042" transform="translate(18.99 6.448)" fill="#ff8827"/>
          <path id="Trazado_646364" data-name="Trazado 646364" d="M43.991,14.909l.211-.059-.211.059" transform="translate(19.043 6.428)" fill="#ff8827"/>
          <path id="Trazado_646365" data-name="Trazado 646365" d="M43.737,14.971l.155-.04-.155.04" transform="translate(18.933 6.463)" fill="#ff8827"/>
          <path id="Trazado_646366" data-name="Trazado 646366" d="M43.214,15.063l.107-.014-.107.014" transform="translate(18.706 6.515)" fill="#ff8827"/>
          <path id="Trazado_646367" data-name="Trazado 646367" d="M44.339,14.8l.086-.023-.086.023" transform="translate(19.193 6.398)" fill="#ff8827"/>
          <path id="Trazado_646368" data-name="Trazado 646368" d="M44.983,14.666c.021,0,.042-.006.063-.007-.021,0-.042,0-.063.007" transform="translate(19.472 6.346)" fill="#ff8827"/>
          <path id="Trazado_646369" data-name="Trazado 646369" d="M45.206,14.651l.033,0-.033,0" transform="translate(19.569 6.342)" fill="#ff8827"/>
          <path id="Trazado_646370" data-name="Trazado 646370" d="M47.437,15.328l.139.007-.139-.007" transform="translate(20.534 6.635)" fill="#ff8827"/>
          <path id="Trazado_646371" data-name="Trazado 646371" d="M44.853,14.684l.073-.011-.073.011" transform="translate(19.416 6.352)" fill="#ff8827"/>
          <path id="Trazado_646372" data-name="Trazado 646372" d="M44.484,14.762l.069-.016-.069.016" transform="translate(19.256 6.383)" fill="#ff8827"/>
          <path id="Trazado_646373" data-name="Trazado 646373" d="M45.331,14.672l.037.01-.037-.01" transform="translate(19.623 6.351)" fill="#ff8827"/>
          <path id="Trazado_646374" data-name="Trazado 646374" d="M48.1,15.3c.06-.013.122-.027.183-.043-.062.016-.123.03-.183.043" transform="translate(20.823 6.604)" fill="#ff8827"/>
          <path id="Trazado_646375" data-name="Trazado 646375" d="M48.246,15.265c.053-.014.106-.032.159-.049-.053.017-.106.034-.159.049" transform="translate(20.885 6.587)" fill="#ff8827"/>
          <path id="Trazado_646376" data-name="Trazado 646376" d="M45.15,14.65h0" transform="translate(19.545 6.342)" fill="#ff8827"/>
          <path id="Trazado_646377" data-name="Trazado 646377" d="M52.046,13.766c-.092.01-.176.036-.267.05.09-.014.175-.04.267-.05" transform="translate(22.414 5.959)" fill="#ff8827"/>
          <path id="Trazado_646378" data-name="Trazado 646378" d="M51.988,13.8a6.806,6.806,0,0,0-.689.132,6.806,6.806,0,0,1,.689-.132" transform="translate(22.206 5.974)" fill="#ff8827"/>
          <path id="Trazado_646379" data-name="Trazado 646379" d="M52.937,13.761a5.342,5.342,0,0,0-.971.014,5.342,5.342,0,0,1,.971-.014" transform="translate(22.495 5.95)" fill="#ff8827"/>
          <path id="Trazado_646380" data-name="Trazado 646380" d="M52.5,13.892A27.738,27.738,0,0,0,48.527,15.7,27.932,27.932,0,0,1,52.5,13.892" transform="translate(21.006 6.014)" fill="#ff8827"/>
          <path id="Trazado_646381" data-name="Trazado 646381" d="M52.643,13.756c.016,0,.029,0,.044,0-.016,0-.029,0-.044,0" transform="translate(22.788 5.955)" fill="#ff8827"/>
          <path id="Trazado_646382" data-name="Trazado 646382" d="M52.674,13.756a5.449,5.449,0,0,1,1.078.2,5.449,5.449,0,0,0-1.078-.2" transform="translate(22.801 5.955)" fill="#ff8827"/>
          <path id="Trazado_646383" data-name="Trazado 646383" d="M44.679,14.717l-.073.016.073-.016" transform="translate(19.309 6.371)" fill="#ff8827"/>
          <path id="Trazado_646384" data-name="Trazado 646384" d="M48.4,15.219c.044-.016.09-.033.136-.052-.046.019-.092.036-.136.052" transform="translate(20.949 6.566)" fill="#ff8827"/>
          <path id="Trazado_646385" data-name="Trazado 646385" d="M54.115,14.05c.224.04.448.077.673.116-.225-.039-.45-.076-.673-.116" transform="translate(23.425 6.082)" fill="#ff8827"/>
          <path id="Trazado_646386" data-name="Trazado 646386" d="M62.7,11.16c-.054-.148-.112-.292-.173-.433-.052-.115-.1-.228-.16-.338a6.767,6.767,0,0,0-.377-.662c-.054-.086-.11-.169-.168-.251s-.13-.182-.2-.271-.122-.153-.185-.228a7.479,7.479,0,0,0-1.573-1.4,8.854,8.854,0,0,0-2.012-.993A11.488,11.488,0,0,0,52.3,6.149,13.8,13.8,0,0,0,47,8.307a9.281,9.281,0,0,0-3.386,3.832,8.286,8.286,0,0,0-.592,1.77c-.029.13-.054.261-.076.393-.009.046-.016.092-.024.136l-.026.145a13.388,13.388,0,0,1-.562,2.139,14.394,14.394,0,0,1-.768,1.719c4.1-.706,4.419-1.208,5.762-.749,2.321.791,2.892.714,5.691-1.029,4.915-3.061,8.586.732,10.317-1.682-.221-1.586-.477-3.369-.569-3.637-.02-.062-.042-.123-.064-.183" transform="translate(17.993 2.594)" fill="#f4b042"/>
          <path id="Trazado_646387" data-name="Trazado 646387" d="M59.426,7.579a8.883,8.883,0,0,0-2.012-.993,11.488,11.488,0,0,0-5.558-.437,13.8,13.8,0,0,0-5.3,2.158,9.271,9.271,0,0,0-3.386,3.832,8.287,8.287,0,0,0-.592,1.77l.039.01a3.269,3.269,0,0,0,.589.079,6.9,6.9,0,0,0,3.274-.911,21.892,21.892,0,0,1,3.129-1.476c2.629-.833,5.451-.04,8.179-.461,1.125-.173,2.784-.886,3.188-2.108.007-.02.014-.042.02-.063a7.479,7.479,0,0,0-1.573-1.4" transform="translate(18.432 2.594)" fill="#ffbf61"/>
          <path id="Trazado_646388" data-name="Trazado 646388" d="M55.486,14.3c.5.113-.116-.034-.666-.132.224.04.447.082.666.132" transform="translate(23.73 6.134)" fill="#ff8827"/>
          <path id="Trazado_646389" data-name="Trazado 646389" d="M47.975,15.315l.142-.024-.142.024" transform="translate(20.767 6.619)" fill="#ff8827"/>
          <path id="Trazado_646390" data-name="Trazado 646390" d="M47.689,15.337c.06,0,.12-.006.181-.01-.06,0-.12.009-.181.01" transform="translate(20.644 6.635)" fill="#ff8827"/>
          <path id="Trazado_646391" data-name="Trazado 646391" d="M47.837,15.33c.049,0,.1-.01.148-.017-.05.007-.1.013-.148.017" transform="translate(20.708 6.629)" fill="#ff8827"/>
          <path id="Trazado_646392" data-name="Trazado 646392" d="M47.565,15.334c.05,0,.1,0,.153,0-.052,0-.1,0-.153,0" transform="translate(20.59 6.638)" fill="#ff8827"/>
          <path id="Trazado_646393" data-name="Trazado 646393" d="M43.882,14.963c-.186.047-.35.083-.533.112.178-.029.355-.067.533-.112" transform="translate(18.765 6.477)" fill="#ff8827"/>
          <path id="Trazado_646394" data-name="Trazado 646394" d="M42.346,15.054l.3.02-.3-.02" transform="translate(18.331 6.517)" fill="#939598"/>
          <path id="Trazado_646395" data-name="Trazado 646395" d="M44.4,14.789l.122-.032-.122.032" transform="translate(19.219 6.388)" fill="#939598"/>
          <path id="Trazado_646396" data-name="Trazado 646396" d="M42.028,15.03l.3.023-.3-.023" transform="translate(18.193 6.506)" fill="#939598"/>
          <path id="Trazado_646397" data-name="Trazado 646397" d="M44.657,14.723l.1-.02-.1.02" transform="translate(19.331 6.365)" fill="#939598"/>
          <path id="Trazado_646398" data-name="Trazado 646398" d="M43.08,15.076c.064,0,.128-.009.192-.016-.064.007-.128.011-.192.016" transform="translate(18.648 6.519)" fill="#939598"/>
          <path id="Trazado_646399" data-name="Trazado 646399" d="M44.781,14.7l.1-.017-.1.017" transform="translate(19.385 6.355)" fill="#939598"/>
          <path id="Trazado_646400" data-name="Trazado 646400" d="M44.9,14.677c.037-.006.076-.01.113-.014-.037,0-.076.009-.113.014" transform="translate(19.438 6.347)" fill="#939598"/>
          <path id="Trazado_646401" data-name="Trazado 646401" d="M41.5,15.005c.1,0,.2,0,.3.009-.1,0-.2-.009-.3-.009" transform="translate(17.964 6.495)" fill="#939598"/>
          <path id="Trazado_646402" data-name="Trazado 646402" d="M44.138,14.852l.02-.006-.02.006" transform="translate(19.106 6.427)" fill="#939598"/>
          <path id="Trazado_646403" data-name="Trazado 646403" d="M41.6,14.68h0" transform="translate(17.956 6.355)" fill="#939598"/>
          <path id="Trazado_646404" data-name="Trazado 646404" d="M43.976,14.9,44,14.891l-.021.006" transform="translate(19.036 6.446)" fill="#939598"/>
          <path id="Trazado_646405" data-name="Trazado 646405" d="M47.534,15.333h0" transform="translate(20.576 6.637)" fill="#939598"/>
          <path id="Trazado_646406" data-name="Trazado 646406" d="M43.721,14.965l.024-.006-.024.006" transform="translate(18.926 6.476)" fill="#939598"/>
          <path id="Trazado_646407" data-name="Trazado 646407" d="M43.845,14.934l.034-.01-.034.01" transform="translate(18.98 6.46)" fill="#939598"/>
          <path id="Trazado_646408" data-name="Trazado 646408" d="M46.4,15.092c-.241-.1-.463-.2-.665-.278-.487-.2.188.083.665.278" transform="translate(19.726 6.384)" fill="#939598"/>
          <path id="Trazado_646409" data-name="Trazado 646409" d="M44.248,14.83c.043-.011.087-.023.13-.036-.043.013-.087.024-.13.036" transform="translate(19.154 6.404)" fill="#939598"/>
          <path id="Trazado_646410" data-name="Trazado 646410" d="M43.289,15.052l.086-.011-.086.011" transform="translate(18.739 6.511)" fill="#939598"/>
          <path id="Trazado_646411" data-name="Trazado 646411" d="M44.638,14.728l-.106.024.106-.024" transform="translate(19.277 6.376)" fill="#939598"/>
          <path id="Trazado_646412" data-name="Trazado 646412" d="M47.815,15.328l.033,0-.033,0" transform="translate(20.698 6.634)" fill="#939598"/>
          <path id="Trazado_646413" data-name="Trazado 646413" d="M46.551,15.139l.021.007-.021-.007" transform="translate(20.151 6.553)" fill="#939598"/>
          <path id="Trazado_646414" data-name="Trazado 646414" d="M46.658,15.174l.04.011a.328.328,0,0,1-.04-.011" transform="translate(20.197 6.569)" fill="#939598"/>
          <path id="Trazado_646415" data-name="Trazado 646415" d="M47.94,15.315l.05-.007-.05.007" transform="translate(20.752 6.627)" fill="#939598"/>
          <path id="Trazado_646416" data-name="Trazado 646416" d="M46.311,15.052l.05.019-.05-.019" transform="translate(20.047 6.516)" fill="#939598"/>
          <path id="Trazado_646417" data-name="Trazado 646417" d="M46.423,15.094l.034.013-.034-.013" transform="translate(20.096 6.534)" fill="#939598"/>
          <path id="Trazado_646418" data-name="Trazado 646418" d="M47.145,15.293l.039.007-.039-.007" transform="translate(20.408 6.62)" fill="#939598"/>
          <path id="Trazado_646419" data-name="Trazado 646419" d="M47.412,15.327l.036,0-.036,0" transform="translate(20.524 6.635)" fill="#939598"/>
          <path id="Trazado_646420" data-name="Trazado 646420" d="M46.774,15.208l.033.01-.033-.01" transform="translate(20.247 6.583)" fill="#939598"/>
          <path id="Trazado_646421" data-name="Trazado 646421" d="M47.025,15.27l.037.007-.037-.007" transform="translate(20.356 6.61)" fill="#939598"/>
          <path id="Trazado_646422" data-name="Trazado 646422" d="M47.673,15.334h0" transform="translate(20.637 6.638)" fill="#939598"/>
          <path id="Trazado_646423" data-name="Trazado 646423" d="M45.5,14.721l.092.033-.092-.033" transform="translate(19.694 6.373)" fill="#939598"/>
          <path id="Trazado_646424" data-name="Trazado 646424" d="M45.292,14.664l.056.011-.056-.011" transform="translate(19.606 6.348)" fill="#939598"/>
          <path id="Trazado_646425" data-name="Trazado 646425" d="M48.49,15.174l.053-.021-.053.021" transform="translate(20.99 6.56)" fill="#939598"/>
          <path id="Trazado_646426" data-name="Trazado 646426" d="M45.151,14.65a.729.729,0,0,1,.079,0,.729.729,0,0,0-.079,0" transform="translate(19.545 6.342)" fill="#939598"/>
          <path id="Trazado_646427" data-name="Trazado 646427" d="M45.229,14.654l.053.007-.053-.007" transform="translate(19.579 6.344)" fill="#939598"/>
          <path id="Trazado_646428" data-name="Trazado 646428" d="M45.357,14.678l.063.017-.063-.017" transform="translate(19.634 6.354)" fill="#939598"/>
          <path id="Trazado_646429" data-name="Trazado 646429" d="M48.231,15.257l.023-.007-.023.007" transform="translate(20.878 6.602)" fill="#939598"/>
          <path id="Trazado_646430" data-name="Trazado 646430" d="M45.027,14.663c.059-.006.116-.01.175-.013-.059,0-.116.007-.175.013" transform="translate(19.491 6.342)" fill="#939598"/>
          <path id="Trazado_646431" data-name="Trazado 646431" d="M48.357,15.222l.054-.019-.054.019" transform="translate(20.933 6.581)" fill="#939598"/>
          <path id="Trazado_646432" data-name="Trazado 646432" d="M46.211,15.012l.052.02-.052-.02" transform="translate(20.004 6.499)" fill="#939598"/>
          <path id="Trazado_646433" data-name="Trazado 646433" d="M48.074,15.293l.042-.007-.042.007" transform="translate(20.81 6.617)" fill="#939598"/>
          <path id="Trazado_646434" data-name="Trazado 646434" d="M45.425,14.7l.075.024-.075-.024" transform="translate(19.664 6.363)" fill="#939598"/>
          <path id="Trazado_646435" data-name="Trazado 646435" d="M51.272,14.114c-2.753,1.714-3.353,1.818-5.575,1.069l.117.708a5.171,5.171,0,0,0,5.256.053c1.851-.957,3.675-1.775,5.75-1.175.857.248,1.788.331,2.665.53,2.98.675,2.263-1.8,2.112-2.867-1.724,2.409-5.429-1.368-10.325,1.682" transform="translate(19.781 5.382)" fill="#b0bec5"/>
          <path id="Trazado_646436" data-name="Trazado 646436" d="M63.409,12.264c-1.724,2.406-5.425-1.363-10.318,1.682-2.8,1.745-3.37,1.823-5.691,1.03-1.344-.459-1.646.042-5.76.748q-.12.232-.245.469h.156a13.362,13.362,0,0,0,3.081-.05,5.548,5.548,0,0,1,2.376-.3c.7.145,1.376.51,2.056.655a5.809,5.809,0,0,0,3.826-.724c1.85-.956,3.672-1.772,5.746-1.174.857.246,1.787.328,2.664.527,2.764.626,2.343-1.464,2.149-2.615q-.021-.135-.039-.249" transform="translate(17.919 5.309)" fill="#a2a3a5"/>
          <path id="Trazado_646437" data-name="Trazado 646437" d="M46.119,12.253a.551.551,0,0,0-.41.622.476.476,0,0,0,.58.4.547.547,0,0,0,.41-.622.477.477,0,0,0-.58-.4" transform="translate(19.783 5.299)" fill="#6b727c"/>
          <path id="Trazado_646438" data-name="Trazado 646438" d="M54.108,11.05a.474.474,0,0,0-.354.559.452.452,0,0,0,.543.357.477.477,0,0,0,.354-.562.452.452,0,0,0-.543-.354" transform="translate(23.265 4.778)" fill="#6b727c"/>
          <path id="Trazado_646439" data-name="Trazado 646439" d="M44.619,9.851c-.072.056-.347.332-.6.555l.1.006,2.621.145a15.756,15.756,0,0,1,1.391-.976q.2-.123.391-.236L45.965,8.89q-.69.454-1.345.961" transform="translate(19.057 3.848)" fill="#6b727c"/>
          <path id="Trazado_646440" data-name="Trazado 646440" d="M50.326,7.266c.552.331,1.271.7,1.818.974a11.409,11.409,0,0,1,1.982.14c-.436-.317-.918-.665-1.333-.961a13.808,13.808,0,0,0-2.467-.153" transform="translate(21.785 3.143)" fill="#6b727c"/>
          <path id="Trazado_646441" data-name="Trazado 646441" d="M46.773,8.46c.714.148,1.639.337,2.463.5a12.816,12.816,0,0,1,1.6-.516l-2.03-.81a15.349,15.349,0,0,0-2.033.821" transform="translate(20.247 3.307)" fill="#6b727c"/>
          <path id="Trazado_646442" data-name="Trazado 646442" d="M54.887,9.737l.054.117,1.2,2.568.712-.589-.229-2.019Z" transform="translate(23.759 4.215)" fill="#ffa15a"/>
          <path id="Trazado_646443" data-name="Trazado 646443" d="M54.925,9.819l1.2,2.568.579-.479-.226-2.02Z" transform="translate(23.776 4.251)" fill="#6b727c"/>
          <path id="Trazado_646444" data-name="Trazado 646444" d="M47.363,28.477a5.86,5.86,0,0,0-.391,1.689,7.557,7.557,0,0,0,.391-1.689" transform="translate(20.333 12.327)" fill="#848689"/>
          <path id="Trazado_646445" data-name="Trazado 646445" d="M67.178,24.011c-.619-.765-1.059-1.727-1.686-2.452-1.688-1.954-5.209-2.665-7.676-2.714.638.013-1.012,2.369-1.221,2.52a8.486,8.486,0,0,1-3.231,1.274c-1.423.318-5.892,4.714-7.342,4.889.5.175,2.089,2.2,1.754,5.118,1.224-3.291,5.077-7.033,7.914-8.422,5.011-.974,7.729,1.648,9.868,6.358A43.389,43.389,0,0,1,67,36.839c2.348.11,4.18-4.336,4.18-4.336s-2.631-6.793-2.638-6.81a8.346,8.346,0,0,0-1.36-1.682" transform="translate(19.922 8.158)" fill="#848689"/>
          <path id="Trazado_646446" data-name="Trazado 646446" d="M43.29,53.282c-4.893.54-11.427.407-15.736,3.114l-3.876,3.642L8.467,81.939,9.6,83.707,29.153,57.3c4.7-.383,9.4-.822,14.092-1.357,6.57-.749,13.675-1.1,16.514-8.262a72.139,72.139,0,0,0-8.745,4.181C48.793,53,45.728,53.012,43.29,53.282" transform="translate(3.665 20.641)" fill="#365466"/>
        </g>
      </g>
      <g id="Grupo_928496" data-name="Grupo 928496" transform="translate(60.207 31.79)">
        <g id="Grupo_928495" data-name="Grupo 928495" clip-path="url(#clip-path-3)">
          <rect id="Rectángulo_339507" data-name="Rectángulo 339507" width="52.011" height="32.061" transform="matrix(0.07, -0.998, 0.998, 0.07, -3.513, 49.877)" fill="url(#linear-gradient)"/>
        </g>
      </g>
      <g id="Grupo_928498" data-name="Grupo 928498" transform="translate(0 0)">
        <g id="Grupo_928497" data-name="Grupo 928497" clip-path="url(#clip-path-2)">
          <path id="Trazado_646448" data-name="Trazado 646448" d="M45.11,38.482l-1.757,2.01c5.939,5.188,12.8,8.536,21.154,8.465l-.146-3.386a27.518,27.518,0,0,1-19.251-7.09" transform="translate(18.767 16.658)" fill="#909da5"/>
          <path id="Trazado_646449" data-name="Trazado 646449" d="M39.9,34.464l-6.49-2.357a.771.771,0,0,0-.526,1.449l6.49,2.356a.77.77,0,1,0,.526-1.447" transform="translate(14.015 13.879)" fill="#909da5"/>
          <path id="Trazado_646450" data-name="Trazado 646450" d="M33.857,34.35a25.688,25.688,0,0,1,13.436,5.965l1-1.166a27.238,27.238,0,0,0-14.25-6.328Z" transform="translate(14.656 14.208)" fill="#909da5"/>
          <path id="Trazado_646451" data-name="Trazado 646451" d="M39.131,32.83a.77.77,0,0,0-.966.5l-.977,3.1a.77.77,0,0,0,.5.967c.961.3,1.019-.668,1.944-3.6a.77.77,0,0,0-.5-.966" transform="translate(16.082 14.196)" fill="#909da5"/>
          <path id="Trazado_646452" data-name="Trazado 646452" d="M38.393,32.158a.77.77,0,0,0-1.012.4l-1.523,3.545a.77.77,0,1,0,1.416.608L38.8,33.17a.77.77,0,0,0-.4-1.012" transform="translate(15.495 13.894)" fill="#909da5"/>
          <path id="Trazado_646453" data-name="Trazado 646453" d="M37.462,31.488a.77.77,0,0,0-1.03.352l-1.858,3.8a.77.77,0,1,0,1.383.678l1.86-3.8a.77.77,0,0,0-.354-1.03" transform="translate(14.932 13.596)" fill="#909da5"/>
          <path id="Trazado_646454" data-name="Trazado 646454" d="M39,34.418a.77.77,0,1,0-1.3.827,47.913,47.913,0,0,0,9.14,10.573.77.77,0,0,0,1.006-1.166A46.4,46.4,0,0,1,39,34.418" transform="translate(16.267 14.745)" fill="#909da5"/>
          <path id="Trazado_646455" data-name="Trazado 646455" d="M53.1,36.115c-.165-.385-5.158,2.045-5.158,2.045l-6.512,5.509-7.18,4.237,1.8,4.515,8.646-3.648,8.036-3.243c.037-.384,5.721-4.572,5.721-4.572S53.2,36.344,53.1,36.115" transform="translate(14.827 15.615)" fill="#edb996"/>
        </g>
      </g>
      <g id="Grupo_928500" data-name="Grupo 928500" transform="translate(64.329 35.25)">
        <g id="Grupo_928499" data-name="Grupo 928499" clip-path="url(#clip-path-5)">
          <rect id="Rectángulo_339509" data-name="Rectángulo 339509" width="18.934" height="28.524" transform="translate(0 0)" fill="url(#linear-gradient-2)"/>
        </g>
      </g>
      <g id="Grupo_928502" data-name="Grupo 928502" transform="translate(0 0)">
        <g id="Grupo_928501" data-name="Grupo 928501" clip-path="url(#clip-path-2)">
          <path id="Trazado_646457" data-name="Trazado 646457" d="M28.461,4.762q.475,1.244.951,2.489a7.025,7.025,0,0,1,.317.678L27.666,2.5c.261.764.516,1.525.8,2.258" transform="translate(11.976 1.084)" fill="#355168"/>
          <path id="Trazado_646458" data-name="Trazado 646458" d="M29.563,7.266a10.483,10.483,0,0,1-.457-.976L41.169,38.005c-3.832-10.271-7.783-20.361-11.606-30.74" transform="translate(12.599 2.723)" fill="#355168"/>
          <path id="Trazado_646459" data-name="Trazado 646459" d="M27.993,3.364c-.33-.964-.668-1.93-1.082-2.846Z" transform="translate(11.649 0.224)" fill="#355168"/>
          <path id="Trazado_646460" data-name="Trazado 646460" d="M26.662,1.382l.009,0,.461-1.36-.971.043Z" transform="translate(11.324 0.008)" fill="#9e8277"/>
          <path id="Trazado_646461" data-name="Trazado 646461" d="M27.621,0l-.64.027-.461,1.36-.009,0,.655,1.722.009,0L27.942.845Z" transform="translate(11.476 0)" fill="#f2b100"/>
          <path id="Trazado_646462" data-name="Trazado 646462" d="M26.974,2.853,28.4,2.311,27.742.591Z" transform="translate(11.676 0.256)" fill="#9e8277"/>
          <path id="Trazado_646463" data-name="Trazado 646463" d="M26.968,2.336l.655,1.722.009,0L28.4,1.792Z" transform="translate(11.674 0.776)" fill="#9e8277"/>
          <path id="Trazado_646464" data-name="Trazado 646464" d="M28.2,1.792l-.768,2.263-.009,0,.655,1.722.009,0,.768-2.263Z" transform="translate(11.872 0.776)" fill="#f2b100"/>
          <path id="Trazado_646465" data-name="Trazado 646465" d="M27.888,5.257l1.423-.542-.655-1.721Z" transform="translate(12.072 1.296)" fill="#9e8277"/>
          <path id="Trazado_646466" data-name="Trazado 646466" d="M27.882,4.74l.655,1.722.009,0L29.314,4.2Z" transform="translate(12.07 1.816)" fill="#9e8277"/>
          <path id="Trazado_646467" data-name="Trazado 646467" d="M29.116,4.2l-.768,2.263-.009,0,.655,1.722.009,0,.768-2.263Z" transform="translate(12.268 1.816)" fill="#f2b100"/>
          <path id="Trazado_646468" data-name="Trazado 646468" d="M28.8,7.661l1.423-.542L29.571,5.4Z" transform="translate(12.468 2.337)" fill="#9e8277"/>
          <path id="Trazado_646469" data-name="Trazado 646469" d="M28.8,7.144l.655,1.722.009,0L30.228,6.6Z" transform="translate(12.465 2.857)" fill="#9e8277"/>
          <path id="Trazado_646470" data-name="Trazado 646470" d="M30.031,6.6l-.768,2.263-.009,0,.655,1.722.009,0,.768-2.263Z" transform="translate(12.663 2.857)" fill="#f2b100"/>
          <path id="Trazado_646471" data-name="Trazado 646471" d="M29.717,10.6l1.423-.542-.418-3.493Z" transform="translate(12.864 2.842)" fill="#9e8277"/>
          <path id="Trazado_646472" data-name="Trazado 646472" d="M29.711,9.548l.655,1.722.009,0L31.142,9Z" transform="translate(12.861 3.898)" fill="#9e8277"/>
          <path id="Trazado_646473" data-name="Trazado 646473" d="M30.945,9l-.768,2.263-.009,0,.655,1.722.009,0,.768-2.263Z" transform="translate(13.059 3.898)" fill="#f2b100"/>
          <path id="Trazado_646474" data-name="Trazado 646474" d="M30.631,12.469l1.423-.542L31.4,10.206Z" transform="translate(13.26 4.418)" fill="#9e8277"/>
          <path id="Trazado_646475" data-name="Trazado 646475" d="M30.625,11.952l.655,1.722.009,0,.768-2.264Z" transform="translate(13.257 4.938)" fill="#9e8277"/>
          <path id="Trazado_646476" data-name="Trazado 646476" d="M31.859,11.408l-.768,2.263-.009,0,.655,1.722.009,0,.768-2.263Z" transform="translate(13.455 4.938)" fill="#f2b100"/>
          <path id="Trazado_646477" data-name="Trazado 646477" d="M31.546,14.872l1.423-.542-.655-1.721Z" transform="translate(13.655 5.459)" fill="#9e8277"/>
          <path id="Trazado_646478" data-name="Trazado 646478" d="M31.539,14.356l.655,1.722.009,0,.768-2.264Z" transform="translate(13.653 5.979)" fill="#9e8277"/>
          <path id="Trazado_646479" data-name="Trazado 646479" d="M32.774,13.811l-.768,2.263-.009,0,.655,1.722.009,0,.768-2.263Z" transform="translate(13.851 5.979)" fill="#f2b100"/>
          <path id="Trazado_646480" data-name="Trazado 646480" d="M32.46,17.276l1.423-.542-.655-1.721Z" transform="translate(14.051 6.499)" fill="#9e8277"/>
          <path id="Trazado_646481" data-name="Trazado 646481" d="M32.454,16.759l.655,1.722.009,0,.768-2.264Z" transform="translate(14.049 7.019)" fill="#9e8277"/>
          <path id="Trazado_646482" data-name="Trazado 646482" d="M33.688,16.215l-.768,2.263-.009,0,.655,1.722.009,0,.768-2.263Z" transform="translate(14.247 7.019)" fill="#f2b100"/>
          <path id="Trazado_646483" data-name="Trazado 646483" d="M33.374,19.68l1.423-.542-.655-1.721Z" transform="translate(14.447 7.54)" fill="#9e8277"/>
          <path id="Trazado_646484" data-name="Trazado 646484" d="M33.368,19.163l.655,1.722.009,0,.768-2.264Z" transform="translate(14.444 8.06)" fill="#9e8277"/>
          <path id="Trazado_646485" data-name="Trazado 646485" d="M34.6,18.619l-.768,2.263-.009,0,.655,1.722.009,0,.768-2.263Z" transform="translate(14.642 8.06)" fill="#f2b100"/>
          <path id="Trazado_646486" data-name="Trazado 646486" d="M34.289,22.084l1.423-.542-.655-1.721Z" transform="translate(14.843 8.58)" fill="#9e8277"/>
          <path id="Trazado_646487" data-name="Trazado 646487" d="M34.283,21.567l.655,1.722.009,0,.768-2.264Z" transform="translate(14.84 9.1)" fill="#9e8277"/>
          <path id="Trazado_646488" data-name="Trazado 646488" d="M35.516,21.023l-.768,2.263-.009,0,.655,1.722.009,0,.768-2.263Z" transform="translate(15.038 9.101)" fill="#f2b100"/>
          <path id="Trazado_646489" data-name="Trazado 646489" d="M35.2,24.488l1.423-.542-.655-1.721Z" transform="translate(15.239 9.621)" fill="#9e8277"/>
          <path id="Trazado_646490" data-name="Trazado 646490" d="M35.2,23.971l.655,1.722.009,0,.768-2.264Z" transform="translate(15.236 10.141)" fill="#9e8277"/>
          <path id="Trazado_646491" data-name="Trazado 646491" d="M36.431,23.427l-.768,2.263-.009,0,.655,1.722.009,0,.768-2.263Z" transform="translate(15.434 10.141)" fill="#f2b100"/>
          <path id="Trazado_646492" data-name="Trazado 646492" d="M36.117,26.892l1.423-.542-.655-1.721Z" transform="translate(15.634 10.662)" fill="#9e8277"/>
          <path id="Trazado_646493" data-name="Trazado 646493" d="M36.111,26.375l.655,1.722.009,0,.768-2.264Z" transform="translate(15.632 11.182)" fill="#9e8277"/>
          <path id="Trazado_646494" data-name="Trazado 646494" d="M37.345,25.831l-.768,2.263-.009,0,.655,1.722.009,0L38,27.553Z" transform="translate(15.83 11.182)" fill="#f2b100"/>
          <path id="Trazado_646495" data-name="Trazado 646495" d="M37.032,29.3l1.423-.542L37.8,27.033Z" transform="translate(16.03 11.702)" fill="#9e8277"/>
          <path id="Trazado_646496" data-name="Trazado 646496" d="M30.619,44.56s-2.859,5.353,1.97,6.819a4.753,4.753,0,0,0,5.423-.96c-.874-3.526-7.394-5.859-7.394-5.859" transform="translate(12.891 19.289)" fill="#e2791a"/>
          <path id="Trazado_646497" data-name="Trazado 646497" d="M35.137,31.317h.009l1.916-1.525h0l-1.493-.347Z" transform="translate(15.21 12.747)" fill="#9e8277"/>
          <path id="Trazado_646498" data-name="Trazado 646498" d="M35.268,31.212l-.433,1.868.009,0,1.916-1.525h0l.433-1.868-1.916,1.525Z" transform="translate(15.079 12.852)" fill="#f2b100"/>
          <path id="Trazado_646499" data-name="Trazado 646499" d="M36.324,32.862l.433-1.868-1.916,1.525Z" transform="translate(15.082 13.417)" fill="#9e8277"/>
          <path id="Trazado_646500" data-name="Trazado 646500" d="M34.533,33.925l.009,0L36.458,32.4l-1.493-.345Z" transform="translate(14.948 13.877)" fill="#9e8277"/>
          <path id="Trazado_646501" data-name="Trazado 646501" d="M34.663,33.821l-.433,1.868.009,0,1.916-1.525h0l.434-1.868-1.917,1.526Z" transform="translate(14.818 13.981)" fill="#f2b100"/>
          <path id="Trazado_646502" data-name="Trazado 646502" d="M35.72,35.471l.433-1.868-1.916,1.525Z" transform="translate(14.82 14.546)" fill="#9e8277"/>
          <path id="Trazado_646503" data-name="Trazado 646503" d="M33.928,36.535h.009l1.917-1.525-1.493-.347Z" transform="translate(14.687 15.006)" fill="#9e8277"/>
          <path id="Trazado_646504" data-name="Trazado 646504" d="M34.059,36.43l-.433,1.87h.009l1.916-1.525h0l.434-1.868-1.917,1.525Z" transform="translate(14.556 15.111)" fill="#f2b100"/>
          <path id="Trazado_646505" data-name="Trazado 646505" d="M35.115,38.08l.433-1.868-1.916,1.525Z" transform="translate(14.559 15.675)" fill="#9e8277"/>
          <path id="Trazado_646506" data-name="Trazado 646506" d="M33.324,39.143h.009l1.917-1.525-1.493-.345Z" transform="translate(14.425 16.136)" fill="#9e8277"/>
          <path id="Trazado_646507" data-name="Trazado 646507" d="M33.454,39.039l-.433,1.868.009,0,1.916-1.525h0l.434-1.868L33.463,39.04Z" transform="translate(14.294 16.24)" fill="#f2b100"/>
          <path id="Trazado_646508" data-name="Trazado 646508" d="M34.511,40.689l.433-1.868-1.916,1.525Z" transform="translate(14.297 16.805)" fill="#9e8277"/>
          <path id="Trazado_646509" data-name="Trazado 646509" d="M32.719,41.752l.009,0,1.917-1.526-1.493-.345Z" transform="translate(14.163 17.265)" fill="#9e8277"/>
          <path id="Trazado_646510" data-name="Trazado 646510" d="M32.85,41.648l-.433,1.87h.009l1.916-1.525h0l.434-1.868L32.859,41.65Z" transform="translate(14.033 17.369)" fill="#f2b100"/>
          <path id="Trazado_646511" data-name="Trazado 646511" d="M33.906,43.3l.433-1.868-1.916,1.525Z" transform="translate(14.035 17.934)" fill="#9e8277"/>
          <path id="Trazado_646512" data-name="Trazado 646512" d="M32.115,44.361h.009l1.917-1.525-1.493-.345Z" transform="translate(13.902 18.394)" fill="#9e8277"/>
          <path id="Trazado_646513" data-name="Trazado 646513" d="M32.245,44.256l-.433,1.87h.009L33.737,44.6h0l.433-1.868-1.917,1.525Z" transform="translate(13.771 18.498)" fill="#f2b100"/>
          <path id="Trazado_646514" data-name="Trazado 646514" d="M33.3,45.907l.433-1.868-1.916,1.525Z" transform="translate(13.774 19.063)" fill="#9e8277"/>
          <path id="Trazado_646515" data-name="Trazado 646515" d="M32.795,47.5h.01l1.354-1.987-1.526.133Z" transform="translate(14.126 19.701)" fill="#9e8277"/>
          <path id="Trazado_646516" data-name="Trazado 646516" d="M34.11,45.511,32.756,47.5h-.01l.162,1.854h.01l1.354-1.987h0Z" transform="translate(14.175 19.701)" fill="#f2b100"/>
          <path id="Trazado_646517" data-name="Trazado 646517" d="M32.865,48.793l1.517-.132-.163-1.856Z" transform="translate(14.227 20.261)" fill="#9e8277"/>
          <path id="Trazado_646518" data-name="Trazado 646518" d="M33.021,50.089h.01L34.385,48.1h0l-1.526.133Z" transform="translate(14.224 20.822)" fill="#9e8277"/>
          <path id="Trazado_646519" data-name="Trazado 646519" d="M32.982,50.088h-.01l.163,1.854h.009L34.5,49.956,34.336,48.1Z" transform="translate(14.273 20.822)" fill="#f2b100"/>
          <path id="Trazado_646520" data-name="Trazado 646520" d="M33.092,51.383l1.517-.132L34.446,49.4Z" transform="translate(14.325 21.382)" fill="#9e8277"/>
          <path id="Trazado_646521" data-name="Trazado 646521" d="M33.085,50.823l.162,1.856h.01l1.354-1.987Z" transform="translate(14.322 21.943)" fill="#9e8277"/>
          <path id="Trazado_646522" data-name="Trazado 646522" d="M33.208,52.678H33.2l.163,1.854h.009l1.356-1.987-.163-1.856Z" transform="translate(14.371 21.943)" fill="#f2b100"/>
          <path id="Trazado_646523" data-name="Trazado 646523" d="M33.318,53.972l1.516-.132-.162-1.856Z" transform="translate(14.423 22.503)" fill="#9e8277"/>
          <path id="Trazado_646524" data-name="Trazado 646524" d="M33.474,55.268h.009l1.356-1.986h0l-1.526.133Z" transform="translate(14.42 23.064)" fill="#9e8277"/>
          <path id="Trazado_646525" data-name="Trazado 646525" d="M34.789,53.28l-1.354,1.987h-.01l.162,1.856h.01l1.354-1.987h0Z" transform="translate(14.469 23.064)" fill="#f2b100"/>
          <path id="Trazado_646526" data-name="Trazado 646526" d="M33.544,56.562l1.517-.132L34.9,54.574Z" transform="translate(14.521 23.624)" fill="#9e8277"/>
          <path id="Trazado_646527" data-name="Trazado 646527" d="M33.7,57.858h.009l1.356-1.987L33.538,56Z" transform="translate(14.518 24.185)" fill="#9e8277"/>
          <path id="Trazado_646528" data-name="Trazado 646528" d="M33.66,57.857h-.009l.162,1.854h.009l1.355-1.987-.163-1.856Z" transform="translate(14.567 24.185)" fill="#f2b100"/>
          <path id="Trazado_646529" data-name="Trazado 646529" d="M33.771,59.151l1.516-.133-.162-1.854Z" transform="translate(14.619 24.745)" fill="#9e8277"/>
          <path id="Trazado_646530" data-name="Trazado 646530" d="M33.764,58.592l.162,1.856h.01l1.354-1.987Z" transform="translate(14.616 25.306)" fill="#9e8277"/>
          <path id="Trazado_646531" data-name="Trazado 646531" d="M33.886,60.446h-.009L34.04,62.3h.009L35.4,60.314l-.163-1.856Z" transform="translate(14.665 25.306)" fill="#f2b100"/>
          <path id="Trazado_646532" data-name="Trazado 646532" d="M34,61.741l1.517-.133-.163-1.854Z" transform="translate(14.716 25.866)" fill="#9e8277"/>
          <path id="Trazado_646533" data-name="Trazado 646533" d="M34.152,63.037h.01l1.354-1.986h0l-1.526.133Z" transform="translate(14.714 26.426)" fill="#9e8277"/>
          <path id="Trazado_646534" data-name="Trazado 646534" d="M34.113,63.036H34.1l.163,1.854h.009L35.629,62.9l-.162-1.856Z" transform="translate(14.762 26.427)" fill="#f2b100"/>
          <path id="Trazado_646535" data-name="Trazado 646535" d="M34.223,64.33l1.517-.132-.163-1.856Z" transform="translate(14.814 26.987)" fill="#9e8277"/>
          <path id="Trazado_646536" data-name="Trazado 646536" d="M34.379,65.626h.01l1.354-1.986h0l-1.526.133Z" transform="translate(14.812 27.547)" fill="#9e8277"/>
          <path id="Trazado_646537" data-name="Trazado 646537" d="M35.694,63.638,34.34,65.625h-.01l.162,1.856h.01l1.354-1.987h0Z" transform="translate(14.861 27.548)" fill="#f2b100"/>
          <path id="Trazado_646538" data-name="Trazado 646538" d="M34.449,66.92l1.517-.132L35.8,64.932Z" transform="translate(14.912 28.108)" fill="#9e8277"/>
          <path id="Trazado_646539" data-name="Trazado 646539" d="M34.6,68.216h.01l1.354-1.987-1.526.133Z" transform="translate(14.91 28.668)" fill="#9e8277"/>
          <path id="Trazado_646540" data-name="Trazado 646540" d="M34.566,68.215h-.01l.163,1.854h.009l1.355-1.987-.163-1.856Z" transform="translate(14.958 28.669)" fill="#f2b100"/>
          <path id="Trazado_646541" data-name="Trazado 646541" d="M34.676,69.509l1.517-.132-.163-1.856Z" transform="translate(15.01 29.229)" fill="#9e8277"/>
          <path id="Trazado_646542" data-name="Trazado 646542" d="M34.669,68.95l.162,1.856h.009L36.2,68.816Z" transform="translate(15.008 29.789)" fill="#9e8277"/>
          <path id="Trazado_646543" data-name="Trazado 646543" d="M34.791,70.8h-.009l.162,1.856h.009l1.356-1.987-.162-1.856Z" transform="translate(15.057 29.789)" fill="#f2b100"/>
          <path id="Trazado_646544" data-name="Trazado 646544" d="M34.9,72.1l1.517-.132-.163-1.856Z" transform="translate(15.108 30.35)" fill="#9e8277"/>
          <path id="Trazado_646545" data-name="Trazado 646545" d="M35.057,73.395h.01l1.354-1.986h0l-1.526.133Z" transform="translate(15.106 30.91)" fill="#9e8277"/>
          <path id="Trazado_646546" data-name="Trazado 646546" d="M36.373,71.406l-1.354,1.987h-.01l.162,1.856h.01l1.354-1.987h0Z" transform="translate(15.154 30.91)" fill="#f2b100"/>
          <path id="Trazado_646547" data-name="Trazado 646547" d="M35.128,74.688l1.517-.133L36.484,72.7Z" transform="translate(15.206 31.471)" fill="#9e8277"/>
          <path id="Trazado_646548" data-name="Trazado 646548" d="M35.284,75.984h.01L36.648,74h0l-1.526.133Z" transform="translate(15.203 32.031)" fill="#9e8277"/>
          <path id="Trazado_646549" data-name="Trazado 646549" d="M35.244,75.983h-.01l.163,1.856h.009l1.356-1.987h0L36.6,74Z" transform="translate(15.252 32.031)" fill="#f2b100"/>
          <path id="Trazado_646550" data-name="Trazado 646550" d="M35.354,77.278l1.516-.132-.162-1.856Z" transform="translate(15.304 32.592)" fill="#9e8277"/>
          <path id="Trazado_646551" data-name="Trazado 646551" d="M35.51,78.574h.01l1.354-1.986h0l-1.526.133Z" transform="translate(15.301 33.152)" fill="#9e8277"/>
          <path id="Trazado_646552" data-name="Trazado 646552" d="M35.471,78.573h-.01l.163,1.854h.009l1.356-1.987h0l-.163-1.854Z" transform="translate(15.35 33.152)" fill="#f2b100"/>
          <path id="Trazado_646553" data-name="Trazado 646553" d="M35.581,79.867l1.517-.132-.163-1.856Z" transform="translate(15.402 33.713)" fill="#9e8277"/>
          <path id="Trazado_646554" data-name="Trazado 646554" d="M35.574,79.308l.162,1.856h.01L37.1,79.174Z" transform="translate(15.399 34.273)" fill="#9e8277"/>
          <path id="Trazado_646555" data-name="Trazado 646555" d="M35.7,81.162h-.009l.162,1.854h.009l1.356-1.987h0l-.163-1.854Z" transform="translate(15.448 34.273)" fill="#f2b100"/>
          <path id="Trazado_646556" data-name="Trazado 646556" d="M35.807,82.457l1.517-.132-.163-1.856Z" transform="translate(15.5 34.834)" fill="#9e8277"/>
          <path id="Trazado_646557" data-name="Trazado 646557" d="M35.9,83l.6-.026.827-1.212L35.8,81.9Z" transform="translate(15.497 35.394)" fill="#9e8277"/>
          <path id="Trazado_646558" data-name="Trazado 646558" d="M36.289,82.975l.929-.04-.1-1.171Z" transform="translate(15.709 35.394)" fill="#f2b100"/>
          <path id="Trazado_646559" data-name="Trazado 646559" d="M35.173,25.882l-1.419,4.4a2.82,2.82,0,0,0,1.761,3.531l.913.315a.89.89,0,0,0,1.172-.971l3.223-1.189.423-6.094-4.264-1.009a1.531,1.531,0,0,0-1.808,1.02" transform="translate(14.552 10.744)" fill="#ff9429"/>
          <path id="Trazado_646560" data-name="Trazado 646560" d="M34.963,44.785,32.2,44.8a2.174,2.174,0,0,0-2.052,2.864L31.5,51.691l1.489-1.417,3.579.512s.747-.431,1.633-.941a13.317,13.317,0,0,1,3.78-.91l-3.056-6.5Z" transform="translate(13 18.37)" fill="#ff9429"/>
          <path id="Trazado_646561" data-name="Trazado 646561" d="M35.7,50.65l-.982,1.235c6.088,1.894,8.45,10.123,6.886,14.7l2.669.5a13.438,13.438,0,0,0-.136-9.609c-1.82-4.4-4.082-5.934-8.438-6.825" transform="translate(15.031 21.925)" fill="#909da5"/>
          <path id="Trazado_646562" data-name="Trazado 646562" d="M56.486,44.19l-2.52.88c2.717,8.173,5.352,14.465,2.189,21.469,1.238-1.43,2.268-2.493,3.1-3.532,1.135-1.419.787-3.151.543-4.952a79.528,79.528,0,0,0-3.31-13.865" transform="translate(23.361 19.129)" fill="#909da5"/>
          <path id="Trazado_646563" data-name="Trazado 646563" d="M63.926,44.77c1.777,5.564-3.509,19.784-22.82,14.7l-.679,2.582c21.1,5.552,27.43-10.151,24.932-17.971Z" transform="translate(17.5 19.083)" fill="#909da5"/>
          <path id="Trazado_646564" data-name="Trazado 646564" d="M35.751,31.78a2.773,2.773,0,1,0,2.89,2.651,2.773,2.773,0,0,0-2.89-2.651" transform="translate(14.327 13.756)" fill="#54809d"/>
          <path id="Trazado_646565" data-name="Trazado 646565" d="M35.49,32.482a1.765,1.765,0,1,0,1.84,1.687,1.763,1.763,0,0,0-1.84-1.687" transform="translate(14.632 14.06)" fill="#2e4b59"/>
        </g>
      </g>
    </g>
  </g>
</svg>
