<svg xmlns="http://www.w3.org/2000/svg" xmlns:xlink="http://www.w3.org/1999/xlink" width="336.873" height="265.24" viewBox="0 0 336.873 265.24">
  <defs>
    <clipPath id="clip-path">
      <rect id="Rectángulo_339882" data-name="Rectángulo 339882" width="336.873" height="265.24" fill="none"/>
    </clipPath>
  </defs>
  <g id="Grupo_929140" data-name="Grupo 929140" transform="translate(0 -0.003)">
    <g id="Grupo_929140-2" data-name="Grupo 929140" transform="translate(0 0.003)" clip-path="url(#clip-path)">
      <path id="Trazado_646955" data-name="Trazado 646955" d="M124.023,217.78c-.665-2.066-1.322-4.206-1.955-6.361l1.558-.47c.628,2.141,1.282,4.268,1.942,6.32Zm278.805-2.668-1.614-.2c.268-2.2.522-4.413.756-6.582l1.616.179c-.235,2.176-.49,4.4-.759,6.6m-282.555-10.1c-.569-2.13-1.121-4.3-1.64-6.449l1.579-.392c.516,2.136,1.065,4.293,1.631,6.411Zm283.979-3.118-1.618-.155c.206-2.208.4-4.428.566-6.6l1.621.13c-.171,2.18-.362,4.409-.569,6.625m-287.105-9.818c-.47-2.17-.916-4.365-1.328-6.523l1.6-.313c.409,2.144.853,4.325,1.32,6.482Zm288.141-3.441-1.622-.1c.137-2.206.258-4.431.358-6.614l1.624.077c-.1,2.192-.222,4.426-.36,6.641M114.654,179c-.362-2.2-.7-4.412-.995-6.584l1.61-.228c.3,2.158.629,4.358.988,6.541ZM405.9,175.345l-1.625-.048c.064-2.216.107-4.443.13-6.621l1.626.018c-.023,2.188-.067,4.425-.131,6.651M112.843,165.8c-.242-2.219-.453-4.451-.627-6.633l1.621-.133c.172,2.166.382,4.381.622,6.584Zm291.564-3.747c-.019-2.218-.061-4.444-.124-6.619l1.625-.048c.063,2.186.1,4.424.124,6.653ZM111.79,152.518c-.108-2.232-.179-4.473-.213-6.661l1.626-.025c.033,2.169.1,4.392.211,6.605Zm292.233-3.7c-.112-2.215-.249-4.437-.408-6.6l1.621-.122c.16,2.18.3,4.415.41,6.643Zm-290.8-9.6-1.626-.034c.045-2.238.132-4.479.26-6.662l1.623.1c-.126,2.162-.212,4.382-.257,6.6m289.833-3.6c-.217-2.214-.463-4.426-.731-6.573l1.613-.207c.269,2.162.517,4.388.736,6.617Zm-289.06-9.584-1.618-.165c.221-2.229.49-4.458.8-6.623l1.609.237c-.307,2.141-.573,4.346-.792,6.551m287.419-3.537c-.338-2.2-.709-4.392-1.1-6.515l1.6-.305c.4,2.14.772,4.349,1.113,6.566Zm-192.294-.233c-2.259-.361-3.894-1.4-6.157-3.2l1.028-1.278c1.983,1.573,3.415,2.517,5.3,2.843Zm5.641-3.923-1.448-.75a26.309,26.309,0,0,0,1.956-6.1l1.588.352a27.5,27.5,0,0,1-2.1,6.493m-16.57-4.011c-1.3-1.463-2.68-3.146-4.232-5.146l1.278-1.02c1.53,1.972,2.892,3.628,4.164,5.064Zm-82.318-1.352-1.6-.314c.421-2.2.9-4.395,1.416-6.522l1.578.4c-.512,2.1-.983,4.267-1.4,6.44m283.123-3.468c-.482-2.178-1-4.336-1.544-6.416l1.572-.422c.548,2.1,1.072,4.279,1.558,6.477Zm-181.045-4.3-1.613-.21c.25-1.968.474-4.123.684-6.588l1.62.142c-.213,2.488-.439,4.666-.691,6.656m-27.974-1.34c-1.322-1.81-2.692-3.723-3.874-5.374l1.316-.968c1.179,1.648,2.547,3.557,3.864,5.361Zm119.037-.136a6.8,6.8,0,0,1-3.693-1.14l.867-1.395a5.167,5.167,0,0,0,5.417.233l.7,1.488a7.567,7.567,0,0,1-3.291.814M119,100.193l-1.555-.482c.646-2.142,1.355-4.273,2.107-6.332l1.525.572c-.741,2.03-1.44,4.13-2.077,6.242m198.621-1.572L316.423,97.5a55.492,55.492,0,0,0,4.04-5.106l1.317.967a57.046,57.046,0,0,1-4.163,5.258m-16.924-1.134a51.156,51.156,0,0,1-3.188-5.926l1.47-.705a49.568,49.568,0,0,0,3.083,5.735Zm94.957-.73c-.655-2.136-1.354-4.239-2.077-6.25l1.527-.565c.732,2.036,1.44,4.164,2.1,6.326ZM182.246,93.132c-1.488-2.061-2.727-3.754-3.9-5.326l1.3-1c1.18,1.58,2.424,3.279,3.917,5.348Zm36.882-1.225L217.5,91.8c.123-1.932.249-4.1.383-6.637l1.624.089c-.135,2.541-.261,4.717-.384,6.655M123.51,87.848l-1.488-.666q1.339-3.075,2.854-6.031l1.442.762q-1.492,2.9-2.809,5.934m202,0-1.359-.906c1.156-1.781,2.349-3.668,3.557-5.575l1.368.891c-1.211,1.911-2.406,3.8-3.566,5.59m-30.616-2.438c-.736-1.873-1.5-3.917-2.326-6.248l1.529-.559c.823,2.314,1.578,4.34,2.307,6.2Zm96.293-1.028c-.874-2.065-1.8-4.07-2.748-5.961l1.449-.748c.966,1.923,1.905,3.961,2.793,6.059Zm-216.852-1.8c-1.475-1.857-2.849-3.51-4.2-5.053l1.216-1.094C172.715,78,174.1,79.67,175.6,81.547ZM219.85,78.6l-1.624-.083c.11-2.2.218-4.406.334-6.649l1.624.087c-.116,2.241-.225,4.444-.334,6.645M332.636,76.69l-1.356-.909c1.358-2.084,2.573-3.887,3.715-5.512l1.324.956c-1.13,1.609-2.335,3.4-3.682,5.465m-203.093-.466-1.371-.887a51.032,51.032,0,0,1,3.916-5.447l1.242,1.064a49.381,49.381,0,0,0-3.787,5.27M290.392,72.87c-.746-2.216-1.477-4.433-2.094-6.309l1.543-.522c.617,1.874,1.347,4.087,2.091,6.3Zm-124.73-.116a56.327,56.327,0,0,0-4.857-4.308l.992-1.307a57.966,57.966,0,0,1,5,4.433Zm219.616-.07c-1.165-1.928-2.387-3.751-3.631-5.419l1.3-.995c1.276,1.711,2.528,3.579,3.72,5.552ZM137.891,66.469l-.986-1.311a19.168,19.168,0,0,1,6.006-3.219l.476,1.576a17.561,17.561,0,0,0-5.5,2.954m202.349-.5-1.263-1.038a64.216,64.216,0,0,1,4.417-5.019l1.15,1.165a62.657,62.657,0,0,0-4.3,4.892m-119.692-.648-1.623-.1c.141-2.4.281-4.573.427-6.653l1.622.118c-.146,2.074-.286,4.244-.426,6.634m-65.12-.345a19.1,19.1,0,0,0-5.931-1.942l.221-1.633a20.7,20.7,0,0,1,6.435,2.1Zm222.035-2.665a38.454,38.454,0,0,0-4.817-4.266l.957-1.333a40.131,40.131,0,0,1,5.023,4.447Zm-91.241-2.054c-.809-2.453-1.475-4.453-2.1-6.295l1.538-.534c.624,1.845,1.292,3.849,2.1,6.306Zm63.187-3.388-.932-1.351a22.818,22.818,0,0,1,6-3.122l.5,1.568a21.208,21.208,0,0,0-5.573,2.905m17.741-2.02a20.3,20.3,0,0,0-6.059-1.584l.151-1.641a21.9,21.9,0,0,1,6.539,1.707ZM221.495,52.063l-1.619-.146c.2-2.313.423-4.547.655-6.64l1.616.184c-.231,2.08-.45,4.3-.652,6.6m60.468-4.376c-.786-2.224-1.526-4.256-2.264-6.214l1.519-.588c.741,1.968,1.486,4.012,2.275,6.246Zm-58.988-8.8-1.609-.236c.329-2.308.69-4.528,1.074-6.6l1.6.3c-.38,2.047-.738,4.243-1.063,6.529m54.309-3.571c-.874-2.131-1.754-4.17-2.617-6.06l1.475-.693c.872,1.91,1.762,3.969,2.644,6.12Zm-51.865-9.41-1.577-.4c.567-2.3,1.192-4.471,1.858-6.445l1.538.533c-.651,1.931-1.263,4.054-1.819,6.312m46.36-2.567c-1.069-2.042-2.162-3.96-3.247-5.7l1.374-.881c1.107,1.774,2.22,3.727,3.309,5.807Zm-42.1-9.785-1.458-.73A32.842,32.842,0,0,1,231.74,7.06l1.277,1.02a31.208,31.208,0,0,0-3.338,5.474m35.126-1.26a40.059,40.059,0,0,0-4.358-4.755l1.09-1.223a41.716,41.716,0,0,1,4.539,4.95ZM237.553,3.807l-.877-1.389A16.071,16.071,0,0,1,242.984,0l.248,1.63a14.463,14.463,0,0,0-5.678,2.175m17.764,0a19.435,19.435,0,0,0-5.864-2.1l.285-1.623a21.037,21.037,0,0,1,6.351,2.276Z" transform="translate(-95.455 -0.003)" fill="#b3d2ff"/>
      <path id="Trazado_646956" data-name="Trazado 646956" d="M307.179,352.107s-35.064-101.38-6.566-125.344c19.048-16.017,34.7,13.055,58.8-5.624,21.454-16.63,14.633-67.225,48.849-74.219,38.469-7.863,46.94,86.5,78.51,73.606,38.308-15.651,76.415,16.121,43.484,131.786Z" transform="translate(-247.627 -125.022)" fill="#bad2f4"/>
      <path id="Trazado_646957" data-name="Trazado 646957" d="M318.813,828.4c-13.492-2.119-11.291,17.021-30.523,17.021-17.584,0-23.21-72.885-36-52.051-65.59,106.812-27.5-45.424-79.666-47.358-23.586-.875-39.3,25.766-45.1,72.934-8.4,42.642-27.885-32.523-47.936-25.535-12.744,4.442-11.284,52.009-28.868,52.009-19.233,0-17.031-19.139-30.523-17.021C5.666,830.677,1.327,864.553,1.327,864.553H337.679s-4.339-33.876-18.866-36.157" transform="translate(-1.135 -636.816)" fill="#c6dcf7"/>
      <path id="Trazado_646958" data-name="Trazado 646958" d="M386.545,1160.136c-12.413-.9-10.387,7.268-28.081,7.268-16.177,0-15.733-18.316-26.558-22.209-19.936-7.169-36.371,29.112-44.1,10.9-14.68-48.315-57.493-72.545-77.245,0-7.729,18.208-25.8-14.282-44.1-10.9-11.262,2.08-10.381,22.209-26.558,22.209-17.693,0-15.668-8.173-28.081-7.268-13.364.974-17.356,15.44-17.356,15.44H403.9s-3.992-14.465-17.356-15.44" transform="translate(-80.816 -947.839)" fill="#d2e5f7"/>
      <path id="Trazado_646959" data-name="Trazado 646959" d="M.192,1556.164s-2.11,8.7,7.666,10.882c13.372,2.98,91.862,10.811,72.794,16.761-10.764,3.359,5.495,7.92,57.923,9.6s142.392-4.9,112.138-14.638,93.337-2.351,85.829-22.6Z" transform="translate(0 -1328.427)" fill="#bad2f4"/>
      <path id="Trazado_646960" data-name="Trazado 646960" d="M744.067,400c0,47.929-38.362,86.783-85.685,86.783S572.7,447.928,572.7,400s38.362-86.783,85.685-86.783S744.067,352.07,744.067,400" transform="translate(-489.946 -267.379)" fill="#eb5648"/>
      <path id="Trazado_646961" data-name="Trazado 646961" d="M776.063,438.413c0,44.292-35.451,80.2-79.183,80.2S617.7,482.7,617.7,438.413s35.451-80.2,79.183-80.2,79.183,35.906,79.183,80.2" transform="translate(-528.443 -305.793)" fill="#fff"/>
      <path id="Trazado_646962" data-name="Trazado 646962" d="M803.792,471.706c0,41.14-32.928,74.49-73.547,74.49s-73.548-33.35-73.548-74.49,32.928-74.49,73.548-74.49,73.547,33.35,73.547,74.49" transform="translate(-561.808 -339.086)" fill="#eb5648"/>
      <path id="Trazado_646963" data-name="Trazado 646963" d="M1012.735,593.9a6.461,6.461,0,0,0-8.8,2.688l-6.106,11.52a29.489,29.489,0,0,0-3.554-5.189V560.777a5.419,5.419,0,1,0-10.837,0v34.214q-1.26-.53-2.577-.942V551.7a5.419,5.419,0,1,0-10.837,0v41.141q-1.306.1-2.577.323V558.436a5.419,5.419,0,1,0-10.837,0V597.42a29.137,29.137,0,0,0-2.577,1.891V572.266a5.419,5.419,0,1,0-10.837,0v48.148a5.586,5.586,0,0,0,.083.954q-.011.4-.011.8a28.993,28.993,0,0,0,55.817,11.418l16.307-30.768a6.629,6.629,0,0,0-2.654-8.917" transform="translate(-806.907 -466.28)" fill="#fff"/>
      <path id="Trazado_646964" data-name="Trazado 646964" d="M1531.492,198.645v13.4a2.308,2.308,0,0,1-4.555,0v-13.4a2.277,2.277,0,1,1,4.555,0" transform="translate(-1306.304 -167.606)" fill="#8fb3f2"/>
      <path id="Trazado_646965" data-name="Trazado 646965" d="M1531.321,332.231a2.312,2.312,0,1,1-2.312-2.342,2.327,2.327,0,0,1,2.312,2.342" transform="translate(-1306.098 -281.612)" fill="#8fb3f2"/>
      <path id="Trazado_646966" data-name="Trazado 646966" d="M298.177,647.681a12.1,12.1,0,0,0-8.559-20.465,11.8,11.8,0,0,0-8.285,3.4,1.765,1.765,0,0,0-.274.277,12.1,12.1,0,0,0,8.559,20.465,11.8,11.8,0,0,0,8.285-3.4,1.88,1.88,0,0,0,.145-.131,1.81,1.81,0,0,0,.129-.146m-.251-8.391a8.44,8.44,0,0,1-1.3,4.511l-11.462-11.609a8.179,8.179,0,0,1,4.454-1.317,8.372,8.372,0,0,1,8.308,8.415m-16.617,0a8.439,8.439,0,0,1,1.3-4.511l11.462,11.609a8.18,8.18,0,0,1-4.454,1.317,8.372,8.372,0,0,1-8.308-8.415" transform="translate(-237.571 -535.426)" fill="#8fb3f2"/>
      <path id="Trazado_646967" data-name="Trazado 646967" d="M1836.177,590.68a12.1,12.1,0,0,0-8.559-20.464,11.8,11.8,0,0,0-8.285,3.4,1.881,1.881,0,0,0-.145.131,1.767,1.767,0,0,0-.129.147,12.1,12.1,0,0,0,8.559,20.464,11.8,11.8,0,0,0,8.285-3.4,1.9,1.9,0,0,0,.145-.131,1.767,1.767,0,0,0,.129-.147m-.251-8.391a8.439,8.439,0,0,1-1.3,4.511l-11.462-11.609a8.18,8.18,0,0,1,4.454-1.317,8.372,8.372,0,0,1,8.308,8.415m-16.617,0a8.439,8.439,0,0,1,1.3-4.511l11.462,11.609a8.18,8.18,0,0,1-4.454,1.317,8.372,8.372,0,0,1-8.308-8.415" transform="translate(-1553.339 -486.768)" fill="#f49f9f"/>
      <path id="Trazado_646968" data-name="Trazado 646968" d="M600.446,267.473l6.225-6.3a2.327,2.327,0,0,0,0-3.262,2.257,2.257,0,0,0-3.221,0l-6.225,6.3-6.225-6.3a2.257,2.257,0,0,0-3.221,0,2.328,2.328,0,0,0,0,3.262l6.225,6.3-6.225,6.3a2.328,2.328,0,0,0,0,3.262,2.257,2.257,0,0,0,3.221,0l6.225-6.3,6.225,6.3a2.257,2.257,0,0,0,3.221,0,2.327,2.327,0,0,0,0-3.262Z" transform="translate(-502.278 -219.586)" fill="#ffd2d2"/>
      <path id="Trazado_646969" data-name="Trazado 646969" d="M1584.888,946.8c-5.916,5.182-14.741,6.822-21.291,1.775v-.007a20.639,20.639,0,0,1-5.287-6.2l1.608-2.64c12.769,7.977,17.823-5.636,28.207-6.7l-2.078,3.073s-.978,10.481-1.159,10.694" transform="translate(-1333.143 -796.485)" fill="#9358e0"/>
      <path id="Trazado_646970" data-name="Trazado 646970" d="M1823.622,1562.947l.2-.1c0,.138.169.618.3.618l5.761.12c.136,0,.22-.26.22-.4l.492-.142a3.02,3.02,0,0,0-.452-1.867c-1.4-1.886.271-10.318.223-12.521.345-.6-6.067-.13-6.156-.272a.249.249,0,0,0-.246.27l.755,9.636c.339,1.83-1.047,2.935-1.1,4.66" transform="translate(-1560.119 -1321.747)" fill="#f99370"/>
      <path id="Trazado_646971" data-name="Trazado 646971" d="M1645.222,1564.041H1656.7c1-.041.994-1.076.81-1.878-.632-2.892.485-9.534.692-12.509a.92.92,0,0,0-.908-1.018h-5.065a.92.92,0,0,0-.905,1.039l.921,7.439c.5,3.232-3.305,3.848-5.475,4.2-1.429.1-3.818,2.08-1.546,2.723" transform="translate(-1406.694 -1322)" fill="#f99370"/>
      <path id="Trazado_646972" data-name="Trazado 646972" d="M1657.222,1624.668c-.031.57-.31,1.22-.962,1.206h-11.9c-2.808-1.055,1.227-4.828,6.723-4.805a16.9,16.9,0,0,0,5.518.178,6.317,6.317,0,0,1,.625,3.422" transform="translate(-1405.971 -1383.833)" fill="#103663"/>
      <path id="Trazado_646973" data-name="Trazado 646973" d="M1828.533,1625.828h-5.088c-2.48-.343-.711-4.779,2.543-4.813,3.271-.033,5.022,4.474,2.544,4.813" transform="translate(-1558.971 -1383.788)" fill="#103663"/>
      <path id="Trazado_646974" data-name="Trazado 646974" d="M1659.317,1630.128a.257.257,0,0,0,.234-.353,3.2,3.2,0,0,0-1.6-1.792.256.256,0,0,0-.186.477,2.7,2.7,0,0,1,1.317,1.507.253.253,0,0,0,.234.16" transform="translate(-1418.095 -1389.719)" fill="#e8c0a6"/>
      <path id="Trazado_646975" data-name="Trazado 646975" d="M1671.8,1626.009a.257.257,0,0,0,.242-.332c-.444-1.706-2.627-2.985-2.038-1.791a3.555,3.555,0,0,1,1.555,1.942.253.253,0,0,0,.241.181" transform="translate(-1428.613 -1385.841)" fill="#e8c0a6"/>
      <path id="Trazado_646976" data-name="Trazado 646976" d="M1687.377,1623.09a.257.257,0,0,0,.239-.341c-.523-1.7-2.506-3.214-2.052-1.963a4.61,4.61,0,0,1,1.574,2.131.254.254,0,0,0,.239.172" transform="translate(-1441.953 -1383.2)" fill="#e8c0a6"/>
      <path id="Trazado_646977" data-name="Trazado 646977" d="M1837.233,1626a.258.258,0,0,0,.128-.477,4.673,4.673,0,0,0-3.927-.012.256.256,0,0,0,.209.467,4.459,4.459,0,0,1,3.59.023" transform="translate(-1568.39 -1387.245)" fill="#e8c0a6"/>
      <path id="Trazado_646978" data-name="Trazado 646978" d="M1643.684,1645.663h13.7a3.2,3.2,0,0,1-.375,1.206h-12.49a.894.894,0,0,1-.833-1.206" transform="translate(-1406.132 -1404.828)" fill="#0f2e54"/>
      <path id="Trazado_646979" data-name="Trazado 646979" d="M1828.745,1646.869h-5.088a1.136,1.136,0,0,1-1.128-1.206h7.344a1.136,1.136,0,0,1-1.128,1.206" transform="translate(-1559.183 -1404.828)" fill="#0f2e54"/>
      <path id="Trazado_646980" data-name="Trazado 646980" d="M1753.61,816.525s-.06-3.767,3.3-4.436l1.762,1.852Z" transform="translate(-1500.223 -693.244)" fill="#8c4225"/>
      <path id="Trazado_646981" data-name="Trazado 646981" d="M1706.506,1164.552s-5.426,1.335-8.222-.1c-1.455-9.242-5.494-34.974-6.9-52.608-.054,1.028-3.01,42.5-3.572,52.608-1.93.654-5.811,1.443-7.983-.141-.976-10.645-4.108-45.691.611-74.314,0,0,12.932,1.457,23.03-1.634,2.78,9.079,3.516,65.293,3.037,76.188" transform="translate(-1435.457 -929.087)" fill="#1d3f70"/>
      <path id="Trazado_646982" data-name="Trazado 646982" d="M1699.6,1267.529c-1.326-30.592,1.717-56.9,1.26-57.218-.8.065-3.857,26.611-1.26,57.218" transform="translate(-1453.139 -1033.188)" fill="#163356"/>
      <path id="Trazado_646983" data-name="Trazado 646983" d="M1811.5,1243.567c-.527-31.436-5.139-61.212-5.836-61.325-.522.4,4.012,29.829,5.836,61.325" transform="translate(-1544.724 -1009.227)" fill="#163356"/>
      <path id="Trazado_646984" data-name="Trazado 646984" d="M1759.318,878.217a27.884,27.884,0,0,1,.446-7.568c.619-2.918,5.187-1.789,4.428,1.079a26.659,26.659,0,0,0-.293,6.662c4.287,1.3-8.607,5.586-4.581-.174" transform="translate(-1504.431 -741.777)" fill="#f99370"/>
      <path id="Trazado_646985" data-name="Trazado 646985" d="M1768.364,871.383c-.011.08-.025.162-.044.241a26.268,26.268,0,0,0-.406,4.964,7.889,7.889,0,0,1-4.556.423,27.718,27.718,0,0,1,.589-6.66c.8-2.6,4.823-1.65,4.416,1.033" transform="translate(-1508.56 -741.671)" fill="#e57d61"/>
      <path id="Trazado_646986" data-name="Trazado 646986" d="M1742.715,827.146c-.651,1.994-1.7,4.19-3.51,5.284h0a5.056,5.056,0,0,1-2.431.685c-4.838.661-9.6-6.009-5.25-9.328a6.111,6.111,0,0,0,1.727-1.982c3.879-7.574,11.833-1.63,9.465,5.341" transform="translate(-1479.864 -698.524)" fill="#f99370"/>
      <path id="Trazado_646987" data-name="Trazado 646987" d="M1618.184,1004.347l-1.992,7.4a15.236,15.236,0,0,1-12.825-1.467c4.41,2.523,10.472,1.1,11.428-.381,1.006-1.57,3.252-5.325,3.389-5.552" transform="translate(-1371.69 -857.366)" fill="#7640cc"/>
      <path id="Trazado_646988" data-name="Trazado 646988" d="M1803.636,968.521q-.693.853-1.476,1.711a4.828,4.828,0,0,1-4.531-2.2c8.114-17.421-7.551-19.047-4.42-34.536,10.466,1.252,25.027,17.073,10.427,35.021" transform="translate(-1533.742 -796.887)" fill="#9358e0"/>
      <path id="Trazado_646989" data-name="Trazado 646989" d="M1767.023,859.338a.31.31,0,0,1,.59-.192.31.31,0,0,1-.59.192" transform="translate(-1511.683 -733.234)" fill="#c16256"/>
      <path id="Trazado_646990" data-name="Trazado 646990" d="M1749.7,853.485a.31.31,0,0,1,.59-.192.31.31,0,0,1-.59.192" transform="translate(-1496.868 -728.237)" fill="#c16256"/>
      <path id="Trazado_646991" data-name="Trazado 646991" d="M1771.2,826.723c-.651,1.994-1.7,4.19-3.51,5.284h0a4.243,4.243,0,0,1-.464.242,10.626,10.626,0,0,0,2.528-3.528l.066-2.264a4.3,4.3,0,0,1-.438-4.457c-3.427.4-4.206-1.831-4.206-1.831a4.3,4.3,0,0,1-2.066-.773c4.715-4.786,10.136,2.084,8.093,7.329" transform="translate(-1508.348 -698.101)" fill="#e57d61"/>
      <path id="Trazado_646992" data-name="Trazado 646992" d="M1748.411,861.209c.2.063.373-.222.112-.246-.412.079-1.313-.351-.816-.558.713-.246,1.824-1.9,1.174-1.6-.006.012-.624,1.156-1.252,1.379-.86.432.186,1.029.781,1.028" transform="translate(-1494.828 -733.092)" fill="#c16256"/>
      <path id="Trazado_646993" data-name="Trazado 646993" d="M1832.017,1158.2q-.693.853-1.476,1.711a5.152,5.152,0,0,1-4.577-2.314c.292-.719.615-1.187.864-1.9a9.808,9.808,0,0,0,5.189,2.5" transform="translate(-1562.123 -986.569)" fill="#7640cc"/>
      <path id="Trazado_646994" data-name="Trazado 646994" d="M1827.1,1166.719c.548.167,1.124-.49.38-.681-4.026.178-5.1-2.514-5.143-2.629-1.746-1,.4,3.555,4.763,3.31" transform="translate(-1558.504 -993.028)" fill="#163356"/>
      <path id="Trazado_646995" data-name="Trazado 646995" d="M1682.434,1151.354s.79,3.432,7.111,5.124c1.811.485,2.857.245,3.122-1.026a3.7,3.7,0,0,1,1.11-2.161,5.04,5.04,0,0,1,1.948,1.5c1.17,1.924,2.933.176,3.791-1.838,1.061-2.491,4.465-5.035,5.054-7.125Z" transform="translate(-1439.332 -978.139)" fill="#f4d4be"/>
      <path id="Trazado_646996" data-name="Trazado 646996" d="M1702.669,964.864c-.206.369-.329.31-.539.1-5.678-4.3-7.711,5.09-13.83,5.258-6.228.624-9.693.981-11.389-1.113-2.962-4.649,1.749-25.432,5.559-30.465,1.669-2.617,4.63-4.949,6.224-6.307-.033.136-.881,3.711,4.583.171.275.117,2.007,1.829,1.9,2.746.278,4.208,10.135,24.887,7.493,29.614" transform="translate(-1433.81 -795.892)" fill="#9358e0"/>
      <path id="Trazado_646997" data-name="Trazado 646997" d="M1751.559,794.694a5.605,5.605,0,0,1,3.244.206,3.191,3.191,0,0,1,1.2-1.674,10.816,10.816,0,0,0,1.082,2.189,5.9,5.9,0,0,1,1.026-2.61c.234,1.381,2.119,2.374,3.008,3.869,0,0,5.026,1.745,1.438,6.214h0a11.34,11.34,0,0,1-.945,3.327c-2.638-2.44-2.07-5.373-.871-6.135a4.421,4.421,0,0,1-5.146-1.588,4.518,4.518,0,0,1-4.031-3.8" transform="translate(-1498.469 -676.782)" fill="#8c4225"/>
      <path id="Trazado_646998" data-name="Trazado 646998" d="M1807.053,1030.638l-1.245-.262c4.978-11.349-.876-16.146-3.973-22.54,7.18,8.416,8.267,13.029,5.218,22.8" transform="translate(-1541.48 -860.344)" fill="#7640cc"/>
      <path id="Trazado_646999" data-name="Trazado 646999" d="M1809.7,873.98c-.824,2.241-3.6,1.156-2.731-1.065.824-2.241,3.6-1.156,2.731,1.065" transform="translate(-1545.733 -744.115)" fill="#f99370"/>
      <path id="Trazado_647000" data-name="Trazado 647000" d="M1815.808,878.083a1.529,1.529,0,0,0,.276-1.7c-.422-.439-1.222-.387-1.224-.132.108.257.651-.164,1.04.279.419.334-.419,1.412-.092,1.548" transform="translate(-1552.623 -747.853)" fill="#c16256"/>
      <path id="Trazado_647001" data-name="Trazado 647001" d="M1813.451,881.56c.179-.013.47-.836,1.356-.782a.117.117,0,0,0,.128-.107c-.577-.592-2.006.9-1.484.889" transform="translate(-1551.322 -751.671)" fill="#c16256"/>
      <path id="Trazado_647002" data-name="Trazado 647002" d="M1754.973,932.523c.03,2.111-5.318,3.975-5.622,3.978l-.641-1.921c-.823.206-1.547,1.373-1.547,1.373-2.372-2.289-.142-4.285,1.547-3.907a0,0,0,0,1,0,0c-.033.136-.406,3.269,4.563.062.64-.3,1.7.413,1.7.413" transform="translate(-1493.825 -795.606)" fill="#f4d4be"/>
      <path id="Trazado_647003" data-name="Trazado 647003" d="M1736.549,1301.424a12.6,12.6,0,0,1-1.675.452s2.726-41.152,3.133-46.644,2.115-6.415,2.115-6.415-3.617,51.719-3.572,52.608" transform="translate(-1484.195 -1066.058)" fill="#163356"/>
      <path id="Trazado_647004" data-name="Trazado 647004" d="M1698.315,1594.658c-.073,1.187-.113,1.9-.108,2-1.93.654-5.811,1.443-7.983-.141,0,0-.056-.652-.168-1.854a11.176,11.176,0,0,0,8.259,0" transform="translate(-1445.853 -1361.288)" fill="#163356"/>
      <path id="Trazado_647005" data-name="Trazado 647005" d="M1825.293,1596.431s-5.426,1.335-8.222-.1c0,0-.115-.715-.317-1.995a19.62,19.62,0,0,0,8.606-.055c.021,1.248-.084,2.046-.067,2.15" transform="translate(-1554.244 -1360.966)" fill="#163356"/>
      <path id="Trazado_647006" data-name="Trazado 647006" d="M1561.33,979.6c-.007,1.687-2.274,3.046-2.274,3.046-.254-.389-.507-.8-.746-1.218l1.608-2.64c.485.271.956.585,1.412.812" transform="translate(-1333.143 -835.547)" fill="#7640cc"/>
      <path id="Trazado_647007" data-name="Trazado 647007" d="M1509.069,931.828c-.622.405.4,1.653.321,2.332a10.012,10.012,0,0,1-1.943-1.257q-1.327-1.658-2.482-3.446c-1.906-.884,1.117,3.488,1.345,4.026l-.015.015a31.917,31.917,0,0,1-3.246-3.025c-2.145-.454,2.179,3.542,2.572,4.018l0,.01a18.463,18.463,0,0,1-3.4-2.5c-2.2-.262,2.5,3.454,3.021,3.787l0,.016c-.931-.125-2.847-1.869-3.461-1.447-.583.956,5.707,4.387,7.911,4.818.793.221,1.938-1.8,1.744-2.594a9.913,9.913,0,0,0-.863-1.99c-.275-.777-.582-2.7-1.495-2.76" transform="translate(-1284.656 -793.335)" fill="#f99370"/>
      <path id="Trazado_647008" data-name="Trazado 647008" d="M1594.846,1039.08c.065.051.13.1.2.161-.065-.051-.123-.1-.188-.139v-.007a.024.024,0,0,1-.007-.015" transform="translate(-1364.4 -887.016)" fill="#395b96"/>
      <path id="Trazado_647009" data-name="Trazado 647009" d="M1768.964,852.338a.146.146,0,0,0,.05-.027.152.152,0,0,0,.023-.212,2.2,2.2,0,0,0-1.713-.774.151.151,0,0,0,.011.3,1.933,1.933,0,0,1,1.469.661.148.148,0,0,0,.16.05" transform="translate(-1511.833 -726.737)" fill="#c16256"/>
      <path id="Trazado_647010" data-name="Trazado 647010" d="M1750.634,846.458a.147.147,0,0,0,.079-.015,1.144,1.144,0,0,1,1.01.093.148.148,0,0,0,.206-.048.152.152,0,0,0-.047-.208,1.423,1.423,0,0,0-1.3-.107.152.152,0,0,0-.067.2.149.149,0,0,0,.121.084" transform="translate(-1497.561 -722.237)" fill="#c16256"/>
      <path id="Trazado_647011" data-name="Trazado 647011" d="M1753.764,879.374a.148.148,0,0,0-.072.036,1.144,1.144,0,0,1-1,.185.149.149,0,0,0-.185.1.151.151,0,0,0,.1.188,1.422,1.422,0,0,0,1.282-.25.153.153,0,0,0,.011-.214.148.148,0,0,0-.139-.048" transform="translate(-1499.277 -750.68)" fill="#c16256"/>
      <path id="Trazado_647012" data-name="Trazado 647012" d="M500.273,905.363c1.9-12.455,9-9.521,9-9.521s3.9-2.055,7.131,2.947c5.118,7.93,11.1,5.948,12.505,13.092,1.374,7-8.029,14.955-19.23,9.783,0,0-11.323-3.763-9.408-16.3" transform="translate(-427.799 -764.384)" fill="#662948"/>
      <path id="Trazado_647013" data-name="Trazado 647013" d="M739.791,1095.427c.483.417-.667,1.4-.726,1.987a8.965,8.965,0,0,0,1.947-.725c.988-.8,1.932-1.649,2.837-2.543,1.865-.466-1.663,2.883-1.949,3.275l.01.016a28.462,28.462,0,0,0,3.429-2.024c2.019-.049-2.622,2.728-3.026,3.028l0,.009a16.467,16.467,0,0,0,3.465-1.535c2.039.134-2.892,2.584-3.376,2.738,0,.005,0,.01,0,.015a16.753,16.753,0,0,0,2.911-.761c1.881.4-2.681,1.906-3.14,2a12.053,12.053,0,0,1-4.324.855c-.739.039-1.359-1.96-1.037-2.62a8.837,8.837,0,0,1,1.138-1.58c.341-.576,1.1-2.326,1.839-2.134" transform="translate(-630.273 -933.986)" fill="#f99370"/>
      <path id="Trazado_647014" data-name="Trazado 647014" d="M547.646,1022.591c1.84,1.375,2.818,3.468,4.246,5.4a25.8,25.8,0,0,0,6.052,6.646c5.223,3.43,11.74,2.072,17.235.25,1.994-.623,1.094-3.794-.921-3.243-4.7,1.077-11,2.049-14.33-2.282-3.211-3.758-4.2-9.036-7.81-12.551-3.922-3.646-8.916,2.785-4.472,5.781" transform="translate(-467.023 -867.075)" fill="#f99370"/>
      <path id="Trazado_647015" data-name="Trazado 647015" d="M570.832,1028.843a12.2,12.2,0,0,0,2.278,3.99,9.373,9.373,0,0,0,5.176,3.09l.149.029c2.286.4,7.17-5.3,4.525-7.263s-2.186-3.141-5.339-7.851-5.813-5.559-5.813-5.559c.037,3.639-2.731,8.619-.977,13.564" transform="translate(-487.852 -866.698)" fill="#ce4abf"/>
      <path id="Trazado_647016" data-name="Trazado 647016" d="M271.221,1448.948,269.5,1438.2c.533-.277,3.185-.169,4.112-.427.593-.058,8.048-2.16,8.825-2.353l.989,6.171-8,.293a1.991,1.991,0,0,0-1.885,1.7c-.428,2.1.3,4.308-1.038,5.831a.774.774,0,0,1-1.28-.463" transform="translate(-230.557 -1225.354)" fill="#f99370"/>
      <path id="Trazado_647017" data-name="Trazado 647017" d="M270.465,1450.05a2.711,2.711,0,0,0-.968.494l1.737,10.837a.769.769,0,0,0,1.121.568c1.081-.6,2.518-2.3,1.975-7.339a10.812,10.812,0,0,1-.72-4.493,6.617,6.617,0,0,0-3.144-.066" transform="translate(-230.556 -1237.697)" fill="#1d3f70"/>
      <path id="Trazado_647018" data-name="Trazado 647018" d="M290.151,1509.992c-.389-.11-.351-.72-1.648-1.042a.223.223,0,0,1-.165-.266c.479-.684,2.755,1.265,1.813,1.308" transform="translate(-246.67 -1287.771)" fill="#e8c0a6"/>
      <path id="Trazado_647019" data-name="Trazado 647019" d="M290.106,1498.069a.219.219,0,0,1-.176-.089,3.058,3.058,0,0,0-1.86-1.08.222.222,0,0,1,.061-.44,3.451,3.451,0,0,1,2.151,1.254.224.224,0,0,1-.176.355" transform="translate(-246.289 -1277.458)" fill="#e8c0a6"/>
      <path id="Trazado_647020" data-name="Trazado 647020" d="M289.722,1484.507a5.423,5.423,0,0,0-2.184-1.141.222.222,0,0,1,.076-.438c1.451.316,2.838,1.337,2.108,1.579" transform="translate(-245.84 -1265.905)" fill="#e8c0a6"/>
      <path id="Trazado_647021" data-name="Trazado 647021" d="M272.373,1462.933l-1.906-11.89a2.711,2.711,0,0,0-.968.494l1.737,10.836a.769.769,0,0,0,1.137.559" transform="translate(-230.557 -1238.69)" fill="#395b96"/>
      <path id="Trazado_647022" data-name="Trazado 647022" d="M590.049,1078.4a9.373,9.373,0,0,0,5.176,3.089c-.944-1.952.365-2.8.607-6,.254-3.349-2.637-6.834-2.637-6.834Z" transform="translate(-504.79 -912.265)" fill="#a523a2"/>
      <path id="Trazado_647023" data-name="Trazado 647023" d="M545.517,1574.078l-10.738-.12c-.177-.581.38-3.2.287-4.176,0-.409-.106-2.646-.143-3.053l.8-6.136,4.733.052-1.083,8.031a2.009,2.009,0,0,0,1.328,2.171c1.973.784,4.225.443,5.488,2.019a.794.794,0,0,1-.677,1.211" transform="translate(-457.477 -1332.209)" fill="#f99370"/>
      <path id="Trazado_647024" data-name="Trazado 647024" d="M532.671,1626.512a2.781,2.781,0,0,0,.315,1.051l10.842.12a.778.778,0,0,0,.745-1.021c-.4-1.181-1.81-2.905-6.8-3.225a10.439,10.439,0,0,1-4.5-.05,6.852,6.852,0,0,0-.6,3.125" transform="translate(-455.684 -1385.813)" fill="#1d3f70"/>
      <path id="Trazado_647025" data-name="Trazado 647025" d="M591.816,1632a.223.223,0,0,1-.2-.308,2.775,2.775,0,0,1,1.406-1.54.222.222,0,0,1,.157.416,2.341,2.341,0,0,0-1.158,1.3.219.219,0,0,1-.2.136" transform="translate(-506.114 -1391.572)" fill="#e8c0a6"/>
      <path id="Trazado_647026" data-name="Trazado 647026" d="M580.017,1628.309a.223.223,0,0,1-.209-.291c.4-1.476,2.309-2.566,1.787-1.535a3.085,3.085,0,0,0-1.369,1.671.22.22,0,0,1-.209.154" transform="translate(-496.02 -1388.11)" fill="#e8c0a6"/>
      <path id="Trazado_647027" data-name="Trazado 647027" d="M566.593,1625.559a.223.223,0,0,1-.206-.3,4.384,4.384,0,0,1,1.561-2.058c.237-.159.48.22.239.374a4,4,0,0,0-1.387,1.834.22.22,0,0,1-.207.147" transform="translate(-484.536 -1385.624)" fill="#e8c0a6"/>
      <path id="Trazado_647028" data-name="Trazado 647028" d="M544.7,1644.874l-11.9-.132a2.78,2.78,0,0,0,.315,1.05l10.842.12a.779.779,0,0,0,.739-1.039" transform="translate(-455.819 -1404.042)" fill="#395b96"/>
      <path id="Trazado_647029" data-name="Trazado 647029" d="M310.121,1220.937a25.155,25.155,0,0,0,.824,5.983c20.613-1.74,29.169-4.457,30.779-24.716,0,0,7.043,13.643.317,39.585h0c-.194.761-.4,1.509-.614,2.272a8.092,8.092,0,0,0,6.3,1.473c4.558-8.774,14.617-29.892,5.931-57.522-5.176-6.065-15.6-6.682-22.211-3.638-5.324,13.868,4.024,30.929-21.326,36.563" transform="translate(-265.31 -1009.523)" fill="#3a72aa"/>
      <path id="Trazado_647030" data-name="Trazado 647030" d="M310.121,1441.26a25.156,25.156,0,0,0,.824,5.983s.929-.066,2.431-.223a21.081,21.081,0,0,1-.917-6.339c-.736.215-1.535.381-2.338.578" transform="translate(-265.31 -1229.845)" fill="#23659b"/>
      <path id="Trazado_647031" data-name="Trazado 647031" d="M526.771,1589.4a8.092,8.092,0,0,0,6.3,1.473s.339-.672.985-1.934c0,0-4.323.412-6.672-1.811h0q-.287,1.12-.614,2.272" transform="translate(-450.656 -1354.856)" fill="#23659b"/>
      <path id="Trazado_647032" data-name="Trazado 647032" d="M529.15,1356.217q-.1.395-.206.791h1.309c4.58-13.895,5.38-36.779-1.418-40.377,0,0,7.043,13.643.317,39.585Z" transform="translate(-452.422 -1123.95)" fill="#23659b"/>
      <path id="Trazado_647033" data-name="Trazado 647033" d="M556.765,1280.015a96.9,96.9,0,0,0,7.15-24.163,64.651,64.651,0,0,0,.313-17.606c-1.2-9.41-4.322-14.276-4.454-14.478l-.873.584.436-.292-.436.292c.031.048,3.136,4.914,4.3,14.107,1.075,8.495.665,22.526-7.393,41.132Z" transform="translate(-475.496 -1044.675)" fill="#23659b"/>
      <path id="Trazado_647034" data-name="Trazado 647034" d="M321.137,1247.977c7.359-.717,12.855-2,16.8-3.923a16,16,0,0,0,8.13-8.166c3.884-8.978,2.456-26.992,2.393-27.754l-1.042.088c.015.184,1.468,18.509-2.309,27.241-2.924,6.758-9.9,10.079-24.073,11.461Z" transform="translate(-274.649 -1031.329)" fill="#23659b"/>
      <path id="Trazado_647035" data-name="Trazado 647035" d="M447.924,1036.18c4.6,2.213,15.327,6.853,22.739,3.2a4.853,4.853,0,0,0,.164-3.2c-2.877-9.992,4.814-11.295-.417-19.679-1.171-1.864-3.384-5.847-4.31-7.587-.866,2.1-3.406.113-4.432-1.091-.754.036-8.955.733-12.244,18.484-.332,1.8-4.87,7.093-1.5,9.871" transform="translate(-382.142 -860.335)" fill="#ce4abf"/>
      <path id="Trazado_647036" data-name="Trazado 647036" d="M529.3,1177.714c.107.634-1.4.645-1.815,1.054a8.935,8.935,0,0,0,1.954.707,37.684,37.684,0,0,0,3.787-.112c1.727.852-3.1,1.135-3.568,1.251,0,.006,0,.013,0,.019a28.22,28.22,0,0,0,3.913.67c1.582,1.272-3.739.394-4.239.362l0,.009a16.424,16.424,0,0,0,3.632,1.069c1.481,1.425-3.855.108-4.324-.088l-.01.011a16.829,16.829,0,0,0,2.717,1.3c1.192,1.528-3.264-.276-3.675-.5a12.135,12.135,0,0,1-3.861-2.148c-.592-.449.2-2.388.861-2.686a8.642,8.642,0,0,1,1.873-.475c.626-.221,2.315-1.073,2.762-.445" transform="translate(-447.938 -1005.168)" fill="#f99370"/>
      <path id="Trazado_647037" data-name="Trazado 647037" d="M443.46,1012.755c-4.405,3.347-8.939,8.511-10.552,13.862-2.553,7.389,6.606,11.726,12.5,13.472,1.152.444,2.5.684,2.972-.8.338-1.354-.773-1.894-1.811-2.291a24.814,24.814,0,0,1-5.517-3.43c-1.872-1.558-3.377-3.7-1.917-5.946a20.875,20.875,0,0,1,8.123-8.708c3.968-2.532.192-8.657-3.8-6.162" transform="translate(-369.98 -864.043)" fill="#f99370"/>
      <path id="Trazado_647038" data-name="Trazado 647038" d="M442.6,1007.242a12.472,12.472,0,0,0-11.413,4.829c-4.831,6.052-8.782,13.734-5.578,15.742,1.836,1.151,2.033-1.885,6.56-.987,3.532.7,2.844-5.954,8.155-11.524,2.923-3.065,3.025-6.972,2.276-8.061" transform="translate(-363.116 -859.751)" fill="#ce4abf"/>
      <path id="Trazado_647039" data-name="Trazado 647039" d="M478.106,1075.616c.567,0,2.483-.3,3.758-4.126a24.238,24.238,0,0,1,3.829-7.106.305.305,0,0,0-.034-.427.3.3,0,0,0-.421.035,24.413,24.413,0,0,0-3.939,7.3c-1.305,3.917-3.247,3.714-3.266,3.711a.3.3,0,0,0-.086.6,1.1,1.1,0,0,0,.16.01" transform="translate(-408.67 -908.191)" fill="#a523a2"/>
      <path id="Trazado_647040" data-name="Trazado 647040" d="M543.186,1007.706a4.4,4.4,0,0,1,1.813,1.261,2.217,2.217,0,0,1-.979,1.542c-.926.464-1.868-1.255-1.868-1.255s-.2,1.5-1.346,1.4-3.319-1.8-4.005-3.942a3.844,3.844,0,0,1,1.916.091Z" transform="translate(-459.236 -859.309)" fill="#ffd2d2"/>
      <path id="Trazado_647041" data-name="Trazado 647041" d="M554.972,999.332l-.175,1.276c-.454,2.011-3.888.072-4.425-.907a12.6,12.6,0,0,0,.217-1.393Z" transform="translate(-470.847 -852.211)" fill="#f99370"/>
      <path id="Trazado_647042" data-name="Trazado 647042" d="M551.72,953.3c0,.08.006.16.015.239a25.684,25.684,0,0,1-.173,4.868,7.727,7.727,0,0,0,4.377.945,27.11,27.11,0,0,0,.189-6.536,2.231,2.231,0,0,0-4.408.485" transform="translate(-471.865 -811.879)" fill="#e57d61"/>
      <path id="Trazado_647043" data-name="Trazado 647043" d="M531.917,909.352c.351,2.023,1.06,4.3,2.66,5.615h0a4.97,4.97,0,0,0,2.257,1.011c4.646,1.287,10.111-4.372,6.383-8.276-1.344-1.222-1.657-3.416-2.732-4.635-1.57-2.237-4.943-2.07-6.739-.2a7.637,7.637,0,0,0-1.833,6.487" transform="translate(-454.982 -769.507)" fill="#f99370"/>
      <path id="Trazado_647044" data-name="Trazado 647044" d="M581.772,943.718a.3.3,0,0,0-.544-.27.3.3,0,0,0,.544.27" transform="translate(-497.214 -805.236)" fill="#c16256"/>
      <path id="Trazado_647045" data-name="Trazado 647045" d="M599.362,940.5a.3.3,0,0,0-.544-.27.3.3,0,0,0,.544.27" transform="translate(-512.262 -802.489)" fill="#c16256"/>
      <path id="Trazado_647046" data-name="Trazado 647046" d="M593.511,946.971c-.187,0-.6.081-.589-.175a.115.115,0,0,1,.143-.077,1.018,1.018,0,0,0,1-.261c.025-.063-.058-.123-.133-.162-.647-.318-1.506-2.137-.913-1.719,0,.012.442,1.208,1.019,1.513.651.442-.016.8-.528.882" transform="translate(-507.161 -806.289)" fill="#c16256"/>
      <path id="Trazado_647047" data-name="Trazado 647047" d="M531.65,908.362c.351,2.022,1.06,4.3,2.66,5.615h0a11.354,11.354,0,0,1-1.474-3.546l.4-1.1c6.919-2.374,6.244-8.039,6.244-8.039-4.26-3.419-8.811,2.443-7.831,7.072" transform="translate(-454.714 -768.517)" fill="#e57d61"/>
      <path id="Trazado_647048" data-name="Trazado 647048" d="M531.59,896.425s.574,5.622-5.615,8l-2.251-1.215c-2.239-4.3,1.68-10.759,7.865-6.786" transform="translate(-447.505 -764.179)" fill="#662948"/>
      <path id="Trazado_647049" data-name="Trazado 647049" d="M529.892,864.165c1.518,5.287,7.6,3.6,6.238-1.734-1.518-5.287-7.6-3.6-6.238,1.734" transform="translate(-453.158 -733.473)" fill="#662948"/>
      <path id="Trazado_647050" data-name="Trazado 647050" d="M523.35,950.67c.485,2.286,3.327,1.635,2.792-.64-.485-2.286-3.327-1.634-2.792.64" transform="translate(-447.672 -809.782)" fill="#f99370"/>
      <path id="Trazado_647051" data-name="Trazado 647051" d="M527.087,954.858a1.434,1.434,0,0,1-.062-1.68c.448-.371,1.26-.185,1.2.047-.141.232-.607-.251-1.045.121-.449.346.172,1.315-.1,1.511" transform="translate(-450.666 -813.505)" fill="#c16256"/>
      <path id="Trazado_647052" data-name="Trazado 647052" d="M528.322,957.867c-.235-.009-.333-.871-1.235-.95a.116.116,0,0,1-.109-.122c.626-.491,1.773,1.115,1.344,1.073" transform="translate(-450.833 -816.693)" fill="#c16256"/>
      <path id="Trazado_647053" data-name="Trazado 647053" d="M532.525,967.311a.258.258,0,0,0,.515-.007.258.258,0,0,0-.515.007" transform="translate(-455.578 -825.531)" fill="#f4d4be"/>
      <path id="Trazado_647054" data-name="Trazado 647054" d="M588.086,964.5a.683.683,0,0,1-.368-.264.588.588,0,0,1,.054-.814.474.474,0,0,1,.414-.068.681.681,0,0,1,.368.264.587.587,0,0,1-.054.814.451.451,0,0,1-.271.088.539.539,0,0,1-.143-.02m-.182-.895a.363.363,0,0,0-.005.5.459.459,0,0,0,.245.179.255.255,0,0,0,.223-.032.363.363,0,0,0,.005-.5.458.458,0,0,0-.245-.179.319.319,0,0,0-.084-.012.233.233,0,0,0-.14.044m.558.08h0Z" transform="translate(-502.68 -822.356)" fill="#c16256"/>
      <path id="Trazado_647055" data-name="Trazado 647055" d="M575.8,936.854a.112.112,0,0,0,.091-.048,1.6,1.6,0,0,1,1.206-.59h0a.113.113,0,0,0,0-.227h0a1.8,1.8,0,0,0-1.388.685.114.114,0,0,0,.027.158.111.111,0,0,0,.065.021" transform="translate(-492.505 -799.013)" fill="#c16256"/>
      <path id="Trazado_647056" data-name="Trazado 647056" d="M592.43,934.137a.108.108,0,0,0,.048-.011,1.357,1.357,0,0,1,1.247-.006.112.112,0,0,0,.154-.037.114.114,0,0,0-.037-.156,1.565,1.565,0,0,0-1.461-.006.114.114,0,0,0-.053.151.112.112,0,0,0,.1.065" transform="translate(-506.731 -797.097)" fill="#c16256"/>
    </g>
  </g>
</svg>
